<?xml version="1.0" encoding="UTF-8"?>
<svg id="Camada_2" data-name="Camada 2" xmlns="http://www.w3.org/2000/svg" viewBox="0 0 6586.09 2744.23">
  <defs>
    <style>
      .cls-1 {
        fill: #fff;
      }

      .cls-2 {
        fill: #b3b3b3;
      }

      .cls-3 {
        opacity: .1;
      }
    </style>
  </defs>
  <g id="Camada_1-2" data-name="Camada 1">
    <g>
      <rect class="cls-1" y="0" width="6586.09" height="2744.23"/>
      <g class="cls-3">
        <g>
          <path class="cls-2" d="M188.04,28.53C119.47,261.57,48.93,495.03,0,733.06v-415.99C22.15,222.02,45.36,127.23,68.35,32.49c2.63-10.83,5.23-21.66,7.87-32.48h120.19c-2.77,9.53-5.57,19.03-8.36,28.52Z"/>
          <path class="cls-2" d="M200.23,2744.23h-122.6c-25.92-113.41-52.42-226.76-77.62-340.36v-450.13c53,266.61,128.5,528.34,200.23,790.49Z"/>
          <path class="cls-2" d="M0,1584.03c9.47,85.99,23.48,171.48,40.4,256.25,61.18,306.87,158.38,605.08,250.08,903.95h123.18c-106.12-302.61-218.84-604.28-291.78-916.94-34.12-146.22-59.13-295.21-64.81-445.45-5.76-152.07,11.19-305.3,40.33-454.43C158.74,613.34,278.93,315.27,394.38,18.12c2.36-6.04,4.68-12.08,7.01-18.12h-117.53c-2.74,8.26-5.48,16.48-8.23,24.71C175.24,325.46,71,627.05,19.69,940.95,11.71,989.83,5.12,1038.91,0,1088.12v495.91Z"/>
          <path class="cls-2" d="M633.72,2744.23h-127.83c-116.84-306.02-241.1-610.79-322.85-928.43-37.64-146.22-65.86-295.69-73.19-446.73-7.37-151.65,13.6-305.71,45.97-453.62C224.49,601.37,356.25,306.24,482.59,12.16c1.74-4.04,3.49-8.11,5.21-12.16h117.26c-.39.8-.78,1.58-1.16,2.38-140.49,289.4-287.52,580.04-365.86,893.84-36.44,146.08-62.42,301.11-53.12,452.07,9.39,152.37,41.73,302.66,83.88,449.11,93.66,325.37,233.68,635.27,364.92,946.82Z"/>
          <path class="cls-2" d="M867.28,2744.23h-136.45c-141.63-316.46-293.28-630.81-395.58-962.66-45.22-146.75-80.4-297.85-91.06-451.38-10.47-150.35,18.61-305.88,57.88-450.55C386.52,568.58,542.69,283.53,692.01,0h119.11c-159.18,273.31-324.9,548.75-416.04,853.66-42.68,142.73-74.91,298.34-63.39,447.92,11.96,155.31,50.57,307.7,99.56,455.15,113.52,341.82,280.76,663.32,436.04,987.5Z"/>
          <path class="cls-2" d="M1120.79,2744.23h-148.66c-164.89-330.83-343.43-658.39-464.73-1008.47-51.37-148.16-92.11-301.72-104.6-458.53-11.88-149.02,21.66-304.1,66.52-445.56C564.29,532.42,735.32,264.84,900.24,0h123.13c-170.37,252.07-345.78,507.85-444.07,797.8-47.41,139.91-81.09,293.39-69.4,441.74,12.54,158.99,55.58,314.46,109.56,463.95,130.88,362.54,324.27,699.52,501.34,1040.73Z"/>
          <path class="cls-2" d="M1399.58,2744.23h-163.81c-185.19-349.91-389.13-694.86-526.13-1067.57-55.42-150.76-99.56-307.9-111.52-468.63-11.02-147.89,21.35-299.45,70.26-438.42C767.5,487.94,943.83,241.69,1116.28,0h129.36c-172.2,226.23-346.26,458.39-444.12,726.77-50.32,138.03-78.71,285.99-69.48,433.21,10.25,163.31,55.05,323.08,111.63,475.89,141.49,382.17,354.65,734.38,547.15,1092.02,2.94,5.43,5.84,10.88,8.78,16.34Z"/>
          <path class="cls-2" d="M1768.47,2744.23h-227.64c-6.37-11.99-12.79-23.96-19.22-35.92-195.38-363.7-413.8-720.59-559.47-1108.39-57.96-154.31-104.21-315.85-114.54-481.09-9.14-146.2,14.93-291.5,65.05-428.87C1006.17,433.74,1174.21,213.27,1342.65,0h129.47c-158.57,194.1-312.8,397.21-396.68,633.91-48.66,137.25-67.07,281.28-53.78,426.29,15.48,168.79,68.01,332.8,131.05,489.29,158.1,392.72,384.36,754.46,581.01,1128.13,11.66,22.15,23.26,44.34,34.76,66.6Z"/>
          <path class="cls-2" d="M2160.64,2744.23h-225.15c-15.65-31.13-31.54-62.12-47.58-92.97-197.57-380.1-429.03-744.88-595.61-1140.45-66.05-156.89-122.52-321.33-141.74-491.29-16.2-143.18-2.38-285.41,44.39-421.89C1271.72,373.62,1416.39,181.7,1567.94,0h130.41c-141.79,166.52-273.72,344.45-341.16,552.38-43.89,135.37-51.2,274.86-31.29,415.27,24.23,170.76,85.57,334.98,155.33,491.84,178.57,401.5,419.17,772.07,618.73,1162.94,20.58,40.32,40.88,80.92,60.68,121.8Z"/>
          <path class="cls-2" d="M2548.49,2744.23h-222.68c-22.68-48.38-46.22-96.32-70.2-143.87-200.03-396.27-445.51-768.94-632.58-1171.83-130.49-281.09-241.66-602.26-144.7-910.9C1539.63,322.47,1661.59,155.31,1795.19,0h132.21c-123.71,142.93-233.65,298.15-286.44,479.24-89.87,308.23,38.33,631.22,172.75,906.11,198.65,406.27,452.27,782.96,653.65,1187.92,27.61,55.5,54.95,112.57,81.12,170.95Z"/>
          <path class="cls-2" d="M2931.96,2744.23h-220.33c-27.78-64.47-57.27-127.5-87.37-188.68-202.19-410.86-461.46-790.18-668.8-1198.17-81-159.38-156.47-326.01-193.86-501.7-28.94-136.03-37.14-271.07.55-406.32C1809.48,279.57,1910.29,133.63,2025.88,0h134.9c-105.24,122.71-194.6,257.52-234.95,413.91-34.92,135.34-20.52,268.74,11.94,402.92,42.65,176.24,123.1,342.43,208.01,501.7,219.31,411.42,487.82,795,691.48,1215.06,33.45,69.04,65.47,139.24,94.71,210.64Z"/>
          <path class="cls-2" d="M188.04,28.53C119.47,261.57,48.93,495.03,0,733.06v-415.99C22.15,222.02,45.36,127.23,68.35,32.49c2.63-10.83,5.23-21.66,7.87-32.48h120.19c-2.77,9.53-5.57,19.03-8.36,28.52Z"/>
          <path class="cls-2" d="M200.23,2744.23h-122.6c-25.92-113.41-52.42-226.76-77.62-340.36v-450.13c53,266.61,128.5,528.34,200.23,790.49Z"/>
          <path class="cls-2" d="M0,1584.03c9.47,85.99,23.48,171.48,40.4,256.25,61.18,306.87,158.38,605.08,250.08,903.95h123.18c-106.12-302.61-218.84-604.28-291.78-916.94-34.12-146.22-59.13-295.21-64.81-445.45-5.76-152.07,11.19-305.3,40.33-454.43C158.74,613.34,278.93,315.27,394.38,18.12c2.36-6.04,4.68-12.08,7.01-18.12h-117.53c-2.74,8.26-5.48,16.48-8.23,24.71C175.24,325.46,71,627.05,19.69,940.95,11.71,989.83,5.12,1038.91,0,1088.12v495.91Z"/>
          <path class="cls-2" d="M633.72,2744.23h-127.83c-116.84-306.02-241.1-610.79-322.85-928.43-37.64-146.22-65.86-295.69-73.19-446.73-7.37-151.65,13.6-305.71,45.97-453.62C224.49,601.37,356.25,306.24,482.59,12.16c1.74-4.04,3.49-8.11,5.21-12.16h117.26c-.39.8-.78,1.58-1.16,2.38-140.49,289.4-287.52,580.04-365.86,893.84-36.44,146.08-62.42,301.11-53.12,452.07,9.39,152.37,41.73,302.66,83.88,449.11,93.66,325.37,233.68,635.27,364.92,946.82Z"/>
          <path class="cls-2" d="M867.28,2744.23h-136.45c-141.63-316.46-293.28-630.81-395.58-962.66-45.22-146.75-80.4-297.85-91.06-451.38-10.47-150.35,18.61-305.88,57.88-450.55C386.52,568.58,542.69,283.53,692.01,0h119.11c-159.18,273.31-324.9,548.75-416.04,853.66-42.68,142.73-74.91,298.34-63.39,447.92,11.96,155.31,50.57,307.7,99.56,455.15,113.52,341.82,280.76,663.32,436.04,987.5Z"/>
          <path class="cls-2" d="M1120.79,2744.23h-148.66c-164.89-330.83-343.43-658.39-464.73-1008.47-51.37-148.16-92.11-301.72-104.6-458.53-11.88-149.02,21.66-304.1,66.52-445.56C564.29,532.42,735.32,264.84,900.24,0h123.13c-170.37,252.07-345.78,507.85-444.07,797.8-47.41,139.91-81.09,293.39-69.4,441.74,12.54,158.99,55.58,314.46,109.56,463.95,130.88,362.54,324.27,699.52,501.34,1040.73Z"/>
          <path class="cls-2" d="M1399.58,2744.23h-163.81c-185.19-349.91-389.13-694.86-526.13-1067.57-55.42-150.76-99.56-307.9-111.52-468.63-11.02-147.89,21.35-299.45,70.26-438.42C767.5,487.94,943.83,241.69,1116.28,0h129.36c-172.2,226.23-346.26,458.39-444.12,726.77-50.32,138.03-78.71,285.99-69.48,433.21,10.25,163.31,55.05,323.08,111.63,475.89,141.49,382.17,354.65,734.38,547.15,1092.02,2.94,5.43,5.84,10.88,8.78,16.34Z"/>
          <path class="cls-2" d="M1768.47,2744.23h-227.64c-6.37-11.99-12.79-23.96-19.22-35.92-195.38-363.7-413.8-720.59-559.47-1108.39-57.96-154.31-104.21-315.85-114.54-481.09-9.14-146.2,14.93-291.5,65.05-428.87C1006.17,433.74,1174.21,213.27,1342.65,0h129.47c-158.57,194.1-312.8,397.21-396.68,633.91-48.66,137.25-67.07,281.28-53.78,426.29,15.48,168.79,68.01,332.8,131.05,489.29,158.1,392.72,384.36,754.46,581.01,1128.13,11.66,22.15,23.26,44.34,34.76,66.6Z"/>
          <path class="cls-2" d="M2160.64,2744.23h-225.15c-15.65-31.13-31.54-62.12-47.58-92.97-197.57-380.1-429.03-744.88-595.61-1140.45-66.05-156.89-122.52-321.33-141.74-491.29-16.2-143.18-2.38-285.41,44.39-421.89C1271.72,373.62,1416.39,181.7,1567.94,0h130.41c-141.79,166.52-273.72,344.45-341.16,552.38-43.89,135.37-51.2,274.86-31.29,415.27,24.23,170.76,85.57,334.98,155.33,491.84,178.57,401.5,419.17,772.07,618.73,1162.94,20.58,40.32,40.88,80.92,60.68,121.8Z"/>
          <path class="cls-2" d="M2548.49,2744.23h-222.68c-22.68-48.38-46.22-96.32-70.2-143.87-200.03-396.27-445.51-768.94-632.58-1171.83-130.49-281.09-241.66-602.26-144.7-910.9C1539.63,322.47,1661.59,155.31,1795.19,0h132.21c-123.71,142.93-233.65,298.15-286.44,479.24-89.87,308.23,38.33,631.22,172.75,906.11,198.65,406.27,452.27,782.96,653.65,1187.92,27.61,55.5,54.95,112.57,81.12,170.95Z"/>
          <path class="cls-2" d="M2931.96,2744.23h-220.33c-27.78-64.47-57.27-127.5-87.37-188.68-202.19-410.86-461.46-790.18-668.8-1198.17-81-159.38-156.47-326.01-193.86-501.7-28.94-136.03-37.14-271.07.55-406.32C1809.48,279.57,1910.29,133.63,2025.88,0h134.9c-105.24,122.71-194.6,257.52-234.95,413.91-34.92,135.34-20.52,268.74,11.94,402.92,42.65,176.24,123.1,342.43,208.01,501.7,219.31,411.42,487.82,795,691.48,1215.06,33.45,69.04,65.47,139.24,94.71,210.64Z"/>
          <path class="cls-2" d="M3311.67,2744.23h-218.01c-30.46-77.27-64.41-153.15-100.17-227.53-204.63-425.62-479.29-811.54-707.08-1224.26-87.9-159.24-172.2-325.23-218.78-501.95-35.09-133.1-53.95-265.53-21.02-401.23C2082.32,242.32,2163.68,115.27,2261.39,0h138.03c-88.26,106.48-159.79,224.21-189.54,359.82-30.07,137.11-4.74,269.65,34.65,401.95,52.09,175.02,140.32,338.64,231.27,496.05,239.27,414.27,522.5,803.23,728.84,1236.22,38.85,81.5,75.3,164.97,107.04,250.19Z"/>
          <path class="cls-2" d="M3676.76,2744.23h-215.87c-31.96-89.31-69.43-176.71-109.67-261.84-206.79-437.34-495.38-827.79-742.58-1241.87-94.55-158.38-187.15-322.69-243.43-499.18-41.82-131.19-71.09-262.92-43.15-400.31C2348.15,212.69,2413.45,100.92,2495.45,0h141.18c-73.19,93.13-129.97,196.38-151.59,314.3-25.42,138.58,9.39,270.07,55.08,400.34,62.12,177.13,160.26,341.16,259.3,499.68,258.6,413.94,555.76,806.55,763.6,1250.26,42.48,90.64,81.5,184.05,113.74,279.65Z"/>
          <path class="cls-2" d="M4049.15,2744.23h-213.82c-32.4-100.64-72.81-198.87-117.17-293.86-209.47-448.42-513.27-842.72-780.41-1256.74-101.64-157.58-202.97-320.25-269.1-496.52-48.38-129-86.99-259.77-64.14-398.68,18.39-111.74,69.79-209.89,137.39-298.43h144.28c-60.95,83.25-105.98,175.55-120.47,280.23-19.25,139.02,24.29,269.16,76.32,396.13,72.17,176.1,178.71,337.81,284.69,494.97,278.02,412.19,589.93,807.35,801.01,1260.37,46.91,100.72,89.01,205.29,121.41,312.52Z"/>
          <path class="cls-2" d="M4418.12,2744.23h-211.94c-31.54-109.61-73.72-216.45-121.24-319.17-211.91-458-531.06-854.91-817.99-1266.46-109.03-156.39-219.17-316.79-296.16-491.95-55.66-126.61-103.46-258-86.63-398.59,11.96-99.97,52.81-188.32,109.33-268.05h146.5c-50.54,74.63-86.24,157.22-95.79,250.24-14.62,142.37,37.77,275.16,97.95,401.23,82.97,173.89,197.82,332.44,310.83,487.66,297.96,409.12,625.74,806.5,840.12,1268.59,50.07,107.92,93.83,220.72,125.01,336.51Z"/>
          <path class="cls-2" d="M4783.76,2744.23h-210.03c-30.44-118.72-74.64-234.34-125.76-344.76-215.57-465.59-550.41-863.6-856.76-1270.67-116.62-154.97-235.65-312.8-323.55-486.41-63.11-124.62-118.44-257.61-106.51-400.23,7.53-89.95,40.24-169.9,87.65-242.15h148c-43.59,69.26-72.78,145.89-78.13,231.88-8.89,143.51,50.24,277.91,117.76,400.98,94.21,171.84,217.92,327.51,338.69,481.12,318.56,405.16,664.4,804.67,882.52,1276.18,52.34,113.16,96.87,232.05,126.12,354.06Z"/>
          <path class="cls-2" d="M5146.24,2744.23h-208.2c-28.36-124.35-73.17-245.51-126.45-360.6-113.93-246.06-267.24-472.48-429.67-688.77-150.74-200.75-311.97-393.17-470.24-587.94-124.51-153.2-252.4-307.9-351.88-479.05-70.62-121.55-132.21-256.86-125.9-400.62,3.68-84.24,30.91-159.38,72.42-227.25h148.58c-39.3,66.3-64.25,139.71-66.13,222.05-3.32,144.51,61.43,281.98,136.61,401.67,105.87,168.6,238.3,320.64,366.89,471.98,165.14,194.38,332.41,387.1,488.35,589.07,166.11,215.18,322.6,441.49,437.73,688.58,55.03,118.09,100.58,242.87,127.89,370.87Z"/>
          <path class="cls-2" d="M5373.47,2744.23h-118.22c-26.92-126.37-71.45-249.6-125.23-366.47-114.04-247.83-269.6-475.09-434.88-691.24-152.98-200.03-317.01-391.17-479.13-583.76-128.89-153.09-261.43-306.79-368-476.72-74.61-119-136.56-256.97-132.6-400.28,2.3-83.69,28.05-158.33,68.18-225.76h202.99c-44.56,72.45-74.14,152.45-78.4,242.26-6.78,142.07,48.52,280.68,120,400.76,100.7,169.13,226.31,323.3,349.19,476.5,156.42,194.99,315.27,388.15,463.15,589.82,156.58,213.52,303.66,437.12,412.33,679.27,51.07,113.79,93.69,233.24,120.61,355.62Z"/>
          <path class="cls-2" d="M5588.81,2744.23h-125.34c-26.34-117.26-66.52-231.85-114.43-341.46-203.22-464.95-533.8-861.99-841.34-1260.37-118.81-153.89-239.94-309.01-336.45-478.24-68.96-121.02-119.72-259.55-112.13-400.78,5.26-97.7,38.86-184.61,88.48-263.37h230.66c-57.22,89.09-97.09,187.07-103.94,297.26-8.81,141.79,36.67,281.76,102.77,405.49,90.31,169.1,204.74,325.1,317.48,479.63,288.21,395.02,598.3,787.47,789.11,1241.7,43.34,103.16,80.01,210.5,105.13,320.14Z"/>
          <path class="cls-2" d="M5814.43,2744.23h-130.96c-23.82-102.85-57.35-203.66-96.79-301.06-180.84-446.62-476.11-835.71-749.59-1228.22-107.92-154.92-217.15-311.55-302.19-480.57-62.45-124.09-103.44-262.9-95.38-402.94,7.09-122.66,52.26-231.82,116.12-331.44h246.67c-72.03,115.9-124.1,241.79-131.24,382.56-7.09,140.52,29.99,279.79,88.76,406.49,77.65,167.46,178.68,323.79,279.1,478.24,252.21,387.77,525.74,771.33,691.71,1206.42,33.57,87.93,62.39,178.43,83.8,270.51Z"/>
          <path class="cls-2" d="M6048.28,2744.23h-135.48c-19.11-82.42-43.92-163.61-72.5-242.87-154.03-427.04-411.53-806.83-647.76-1191.11-94.74-154.12-189.59-310.23-261.62-476.53-55.91-129.14-90.56-268.88-84.44-410.31,6.7-154.67,63.2-294.02,140.16-423.41h250.02c-81.28,149.27-142.04,307.9-147.77,481.62-4.74,143.31,27.44,284.17,79.26,417.12,63.72,163.45,149.21,318.06,235.23,470.57,213.35,378.35,447.56,751.52,585.83,1165.96,22.85,68.51,42.9,138.3,59.07,208.95Z"/>
          <path class="cls-2" d="M6288.22,2744.23h-138.69c-13.93-62.14-30.71-123.65-49.63-184.22-126.09-403.61-341.96-770.74-537.54-1143.09-144.23-274.58-299.76-570.82-292.28-889.61,4.4-188.18,66.88-362.07,149.52-527.32h243.95c-81.47,187.65-143.95,382.67-146.14,590.18-3.3,313.69,129.27,610.59,260.15,888.91,172.26,366.33,364.86,727.32,474.45,1119.05,13.49,48.24,25.67,96.98,36.2,146.08Z"/>
          <path class="cls-2" d="M6532.2,2744.23h-140.74c-8.36-40.85-17.81-81.45-28.14-121.74-97.76-381.23-271.84-736.15-426.18-1096.37-120.19-280.48-236.97-578.08-236.97-887.78-.03-222.05,60.87-433.38,139.58-638.34h232.77c-72.17,227.7-128.66,460.38-125.81,701.12,1.8,148.27,29.33,290.95,62.53,434.87,35.75,155.08,88.62,305.85,143.9,454.9,131.02,353.32,281.06,701.95,362.32,1071.33,5.98,27.22,11.6,54.56,16.76,82Z"/>
          <path class="cls-2" d="M6586.09,1935.21v572.87c-73.55-295.66-180.89-582.09-275.66-871.47-48.57-148.33-94.52-298.21-124.84-451.49-14.62-73.97-31.16-147.55-41.6-222.3-10.05-71.7-15.81-143.98-17.22-216.37-5.04-254.26,46.88-502.37,112.6-746.46h219.39c-55.3,264.89-99.59,532.74-92,804.36,2.05,72.81,7.59,145.53,16.7,217.81,9.58,75.58,24.81,150.18,36.44,225.43,23.37,151.18,60.21,300.01,99.81,447.64,21.52,80.09,43.92,160.02,66.38,239.97Z"/>
          <path class="cls-2" d="M6586.09,185.77v1088.33c-9.17-69.37-21.71-138.22-29.83-207.76-8.75-74.72-14.18-149.79-16.51-224.98-6.81-219.94,14.54-438.45,46.33-655.59Z"/>
          <path class="cls-2" d="M4049.15,2744.23h-213.82c-32.4-100.64-72.81-198.87-117.17-293.86-209.47-448.42-513.27-842.72-780.41-1256.74-101.64-157.58-202.97-320.25-269.1-496.52-48.38-129-86.99-259.77-64.14-398.68,18.39-111.74,69.79-209.89,137.39-298.43h144.28c-60.95,83.25-105.98,175.55-120.47,280.23-19.25,139.02,24.29,269.16,76.32,396.13,72.17,176.1,178.71,337.81,284.69,494.97,278.02,412.19,589.93,807.35,801.01,1260.37,46.91,100.72,89.01,205.29,121.41,312.52Z"/>
          <path class="cls-2" d="M4418.12,2744.23h-211.94c-31.54-109.61-73.72-216.45-121.24-319.17-211.91-458-531.06-854.91-817.99-1266.46-109.03-156.39-219.17-316.79-296.16-491.95-55.66-126.61-103.46-258-86.63-398.59,11.96-99.97,52.81-188.32,109.33-268.05h146.5c-50.54,74.63-86.24,157.22-95.79,250.24-14.62,142.37,37.77,275.16,97.95,401.23,82.97,173.89,197.82,332.44,310.83,487.66,297.96,409.12,625.74,806.5,840.12,1268.59,50.07,107.92,93.83,220.72,125.01,336.51Z"/>
          <path class="cls-2" d="M4783.76,2744.23h-210.03c-30.44-118.72-74.64-234.34-125.76-344.76-215.57-465.59-550.41-863.6-856.76-1270.67-116.62-154.97-235.65-312.8-323.55-486.41-63.11-124.62-118.44-257.61-106.51-400.23,7.53-89.95,40.24-169.9,87.65-242.15h148c-43.59,69.26-72.78,145.89-78.13,231.88-8.89,143.51,50.24,277.91,117.76,400.98,94.21,171.84,217.92,327.51,338.69,481.12,318.56,405.16,664.4,804.67,882.52,1276.18,52.34,113.16,96.87,232.05,126.12,354.06Z"/>
          <path class="cls-2" d="M5146.24,2744.23h-208.2c-28.36-124.35-73.17-245.51-126.45-360.6-113.93-246.06-267.24-472.48-429.67-688.77-150.74-200.75-311.97-393.17-470.24-587.94-124.51-153.2-252.4-307.9-351.88-479.05-70.62-121.55-132.21-256.86-125.9-400.62,3.68-84.24,30.91-159.38,72.42-227.25h148.58c-39.3,66.3-64.25,139.71-66.13,222.05-3.32,144.51,61.43,281.98,136.61,401.67,105.87,168.6,238.3,320.64,366.89,471.98,165.14,194.38,332.41,387.1,488.35,589.07,166.11,215.18,322.6,441.49,437.73,688.58,55.03,118.09,100.58,242.87,127.89,370.87Z"/>
          <path class="cls-2" d="M5373.47,2744.23h-118.22c-26.92-126.37-71.45-249.6-125.23-366.47-114.04-247.83-269.6-475.09-434.88-691.24-152.98-200.03-317.01-391.17-479.13-583.76-128.89-153.09-261.43-306.79-368-476.72-74.61-119-136.56-256.97-132.6-400.28,2.3-83.69,28.05-158.33,68.18-225.76h202.99c-44.56,72.45-74.14,152.45-78.4,242.26-6.78,142.07,48.52,280.68,120,400.76,100.7,169.13,226.31,323.3,349.19,476.5,156.42,194.99,315.27,388.15,463.15,589.82,156.58,213.52,303.66,437.12,412.33,679.27,51.07,113.79,93.69,233.24,120.61,355.62Z"/>
          <path class="cls-2" d="M5588.81,2744.23h-125.34c-26.34-117.26-66.52-231.85-114.43-341.46-203.22-464.95-533.8-861.99-841.34-1260.37-118.81-153.89-239.94-309.01-336.45-478.24-68.96-121.02-119.72-259.55-112.13-400.78,5.26-97.7,38.86-184.61,88.48-263.37h230.66c-57.22,89.09-97.09,187.07-103.94,297.26-8.81,141.79,36.67,281.76,102.77,405.49,90.31,169.1,204.74,325.1,317.48,479.63,288.21,395.02,598.3,787.47,789.11,1241.7,43.34,103.16,80.01,210.5,105.13,320.14Z"/>
          <path class="cls-2" d="M5814.43,2744.23h-130.96c-23.82-102.85-57.35-203.66-96.79-301.06-180.84-446.62-476.11-835.71-749.59-1228.22-107.92-154.92-217.15-311.55-302.19-480.57-62.45-124.09-103.44-262.9-95.38-402.94,7.09-122.66,52.26-231.82,116.12-331.44h246.67c-72.03,115.9-124.1,241.79-131.24,382.56-7.09,140.52,29.99,279.79,88.76,406.49,77.65,167.46,178.68,323.79,279.1,478.24,252.21,387.77,525.74,771.33,691.71,1206.42,33.57,87.93,62.39,178.43,83.8,270.51Z"/>
          <path class="cls-2" d="M6048.28,2744.23h-135.48c-19.11-82.42-43.92-163.61-72.5-242.87-154.03-427.04-411.53-806.83-647.76-1191.11-94.74-154.12-189.59-310.23-261.62-476.53-55.91-129.14-90.56-268.88-84.44-410.31,6.7-154.67,63.2-294.02,140.16-423.41h250.02c-81.28,149.27-142.04,307.9-147.77,481.62-4.74,143.31,27.44,284.17,79.26,417.12,63.72,163.45,149.21,318.06,235.23,470.57,213.35,378.35,447.56,751.52,585.83,1165.96,22.85,68.51,42.9,138.3,59.07,208.95Z"/>
          <path class="cls-2" d="M6288.22,2744.23h-138.69c-13.93-62.14-30.71-123.65-49.63-184.22-126.09-403.61-341.96-770.74-537.54-1143.09-144.23-274.58-299.76-570.82-292.28-889.61,4.4-188.18,66.88-362.07,149.52-527.32h243.95c-81.47,187.65-143.95,382.67-146.14,590.18-3.3,313.69,129.27,610.59,260.15,888.91,172.26,366.33,364.86,727.32,474.45,1119.05,13.49,48.24,25.67,96.98,36.2,146.08Z"/>
          <path class="cls-2" d="M6532.2,2744.23h-140.74c-8.36-40.85-17.81-81.45-28.14-121.74-97.76-381.23-271.84-736.15-426.18-1096.37-120.19-280.48-236.97-578.08-236.97-887.78-.03-222.05,60.87-433.38,139.58-638.34h232.77c-72.17,227.7-128.66,460.38-125.81,701.12,1.8,148.27,29.33,290.95,62.53,434.87,35.75,155.08,88.62,305.85,143.9,454.9,131.02,353.32,281.06,701.95,362.32,1071.33,5.98,27.22,11.6,54.56,16.76,82Z"/>
          <path class="cls-2" d="M6586.09,1935.21v572.87c-73.55-295.66-180.89-582.09-275.66-871.47-48.57-148.33-94.52-298.21-124.84-451.49-14.62-73.97-31.16-147.55-41.6-222.3-10.05-71.7-15.81-143.98-17.22-216.37-5.04-254.26,46.88-502.37,112.6-746.46h219.39c-55.3,264.89-99.59,532.74-92,804.36,2.05,72.81,7.59,145.53,16.7,217.81,9.58,75.58,24.81,150.18,36.44,225.43,23.37,151.18,60.21,300.01,99.81,447.64,21.52,80.09,43.92,160.02,66.38,239.97Z"/>
          <path class="cls-2" d="M6586.09,185.77v1088.33c-9.17-69.37-21.71-138.22-29.83-207.76-8.75-74.72-14.18-149.79-16.51-224.98-6.81-219.94,14.54-438.45,46.33-655.59Z"/>
        </g>
      </g>
    </g>
  </g>
</svg>