<svg width="936" height="936" viewBox="0 0 936 936" fill="none" xmlns="http://www.w3.org/2000/svg">
<circle cx="18" cy="18" r="18" fill="black"/>
<circle cx="118" cy="18" r="18" fill="black"/>
<circle cx="218" cy="18" r="18" fill="black"/>
<circle cx="118" cy="18" r="18" fill="black"/>
<circle cx="218" cy="18" r="18" fill="black"/>
<circle cx="318" cy="18" r="18" fill="black"/>
<circle cx="418" cy="18" r="18" fill="black"/>
<circle cx="518" cy="18" r="18" fill="black"/>
<circle cx="418" cy="18" r="18" fill="black"/>
<circle cx="518" cy="18" r="18" fill="black"/>
<circle cx="618" cy="18" r="18" fill="black"/>
<circle cx="718" cy="18" r="18" fill="black"/>
<circle cx="818" cy="18" r="18" fill="black"/>
<circle cx="718" cy="18" r="18" fill="black"/>
<circle cx="818" cy="18" r="18" fill="black"/>
<circle cx="318" cy="118" r="18" fill="black"/>
<circle cx="418" cy="118" r="18" fill="black"/>
<circle cx="518" cy="118" r="18" fill="black"/>
<circle cx="418" cy="118" r="18" fill="black"/>
<circle cx="518" cy="118" r="18" fill="black"/>
<circle cx="618" cy="118" r="18" fill="black"/>
<circle cx="718" cy="118" r="18" fill="black"/>
<circle cx="818" cy="118" r="18" fill="black"/>
<circle cx="718" cy="118" r="18" fill="black"/>
<circle cx="818" cy="118" r="18" fill="black"/>
<circle cx="918" cy="18" r="18" fill="black"/>
<circle cx="18" cy="118" r="18" fill="black"/>
<circle cx="118" cy="118" r="18" fill="black"/>
<circle cx="218" cy="118" r="18" fill="black"/>
<circle cx="118" cy="118" r="18" fill="black"/>
<circle cx="218" cy="118" r="18" fill="black"/>
<circle cx="18" cy="118" r="18" fill="black"/>
<circle cx="118" cy="118" r="18" fill="black"/>
<circle cx="218" cy="118" r="18" fill="black"/>
<circle cx="118" cy="118" r="18" fill="black"/>
<circle cx="218" cy="118" r="18" fill="black"/>
<circle cx="318" cy="218" r="18" fill="black"/>
<circle cx="418" cy="218" r="18" fill="black"/>
<circle cx="518" cy="218" r="18" fill="black"/>
<circle cx="418" cy="218" r="18" fill="black"/>
<circle cx="518" cy="218" r="18" fill="black"/>
<circle cx="618" cy="218" r="18" fill="black"/>
<circle cx="718" cy="218" r="18" fill="black"/>
<circle cx="718" cy="218" r="18" fill="black"/>
<circle cx="18" cy="218" r="18" fill="black"/>
<circle cx="118" cy="218" r="18" fill="black"/>
<circle cx="218" cy="218" r="18" fill="black"/>
<circle cx="118" cy="218" r="18" fill="black"/>
<circle cx="218" cy="218" r="18" fill="black"/>
<circle cx="18" cy="218" r="18" fill="black"/>
<circle cx="118" cy="218" r="18" fill="black"/>
<circle cx="218" cy="218" r="18" fill="black"/>
<circle cx="118" cy="218" r="18" fill="black"/>
<circle cx="218" cy="218" r="18" fill="black"/>
<circle cx="318" cy="318" r="18" fill="black"/>
<circle cx="418" cy="318" r="18" fill="black"/>
<circle cx="518" cy="318" r="18" fill="black"/>
<circle cx="418" cy="318" r="18" fill="black"/>
<circle cx="518" cy="318" r="18" fill="black"/>
<circle cx="618" cy="318" r="18" fill="black"/>
<circle cx="18" cy="318" r="18" fill="black"/>
<circle cx="118" cy="318" r="18" fill="black"/>
<circle cx="218" cy="318" r="18" fill="black"/>
<circle cx="118" cy="318" r="18" fill="black"/>
<circle cx="218" cy="318" r="18" fill="black"/>
<circle cx="18" cy="318" r="18" fill="black"/>
<circle cx="118" cy="318" r="18" fill="black"/>
<circle cx="218" cy="318" r="18" fill="black"/>
<circle cx="118" cy="318" r="18" fill="black"/>
<circle cx="218" cy="318" r="18" fill="black"/>
<circle cx="318" cy="418" r="18" fill="black"/>
<circle cx="418" cy="418" r="18" fill="black"/>
<circle cx="518" cy="418" r="18" fill="black"/>
<circle cx="418" cy="418" r="18" fill="black"/>
<circle cx="518" cy="418" r="18" fill="black"/>
<circle cx="18" cy="418" r="18" fill="black"/>
<circle cx="118" cy="418" r="18" fill="black"/>
<circle cx="218" cy="418" r="18" fill="black"/>
<circle cx="118" cy="418" r="18" fill="black"/>
<circle cx="218" cy="418" r="18" fill="black"/>
<circle cx="18" cy="418" r="18" fill="black"/>
<circle cx="118" cy="418" r="18" fill="black"/>
<circle cx="218" cy="418" r="18" fill="black"/>
<circle cx="118" cy="418" r="18" fill="black"/>
<circle cx="218" cy="418" r="18" fill="black"/>
<circle cx="318" cy="518" r="18" fill="black"/>
<circle cx="418" cy="518" r="18" fill="black"/>
<circle cx="418" cy="518" r="18" fill="black"/>
<circle cx="18" cy="518" r="18" fill="black"/>
<circle cx="118" cy="518" r="18" fill="black"/>
<circle cx="218" cy="518" r="18" fill="black"/>
<circle cx="118" cy="518" r="18" fill="black"/>
<circle cx="218" cy="518" r="18" fill="black"/>
<circle cx="18" cy="518" r="18" fill="black"/>
<circle cx="118" cy="518" r="18" fill="black"/>
<circle cx="218" cy="518" r="18" fill="black"/>
<circle cx="118" cy="518" r="18" fill="black"/>
<circle cx="218" cy="518" r="18" fill="black"/>
<circle cx="318" cy="618" r="18" fill="black"/>
<circle cx="18" cy="618" r="18" fill="black"/>
<circle cx="118" cy="618" r="18" fill="black"/>
<circle cx="218" cy="618" r="18" fill="black"/>
<circle cx="118" cy="618" r="18" fill="black"/>
<circle cx="218" cy="618" r="18" fill="black"/>
<circle cx="18" cy="618" r="18" fill="black"/>
<circle cx="118" cy="618" r="18" fill="black"/>
<circle cx="218" cy="618" r="18" fill="black"/>
<circle cx="118" cy="618" r="18" fill="black"/>
<circle cx="218" cy="618" r="18" fill="black"/>
<circle cx="18" cy="718" r="18" fill="black"/>
<circle cx="118" cy="718" r="18" fill="black"/>
<circle cx="218" cy="718" r="18" fill="black"/>
<circle cx="118" cy="718" r="18" fill="black"/>
<circle cx="218" cy="718" r="18" fill="black"/>
<circle cx="18" cy="718" r="18" fill="black"/>
<circle cx="118" cy="718" r="18" fill="black"/>
<circle cx="218" cy="718" r="18" fill="black"/>
<circle cx="118" cy="718" r="18" fill="black"/>
<circle cx="18" cy="818" r="18" fill="black"/>
<circle cx="118" cy="818" r="18" fill="black"/>
<circle cx="118" cy="818" r="18" fill="black"/>
<circle cx="18" cy="818" r="18" fill="black"/>
<circle cx="18" cy="918" r="18" fill="black"/>
<circle cx="118" cy="818" r="18" fill="black"/>
<circle cx="118" cy="818" r="18" fill="black"/>
<circle cx="218" cy="718" r="18" fill="black"/>
</svg>
