<?xml version="1.0" encoding="UTF-8"?>
<svg id="Camada_2" data-name="Camada 2" xmlns="http://www.w3.org/2000/svg" version="1.1" viewBox="0 0 4831.1 5372.1">
  <defs>
    <style>
      .cls-1 {
        fill: #000;
      }

      .cls-1, .cls-2, .cls-3 {
        stroke-width: 0px;
      }

      .cls-2 {
        fill: #1f3d87;
      }

      .cls-3 {
        fill: #312782;
      }
    </style>
  </defs>
  <path class="cls-3" d="M8911.6,1011.4c43,168.4-15.6,264.4-62.9,311.4-24.9,24.8-31.6,62.4-15.5,93.7,98.6,191.1-17.8,280.4-87,314.4-26.8,13.2-44.2,40.1-44.2,70v132.4c0,6.8-.8,13.7-2.6,20.3-136.5,522.3-560.9,473.1-1095.8,309.7-246.7-75.4-382.7-57.3-457.5-15.7-54.4,30.2-120.2-14.2-115.8-76.3,5.7-79.5,30.6-170.4,98.2-251.2,166.2-198.7,563.6-25.3,664.8,7.2,90.6,29.1,291.4,32.2,332.3,32.5,4.9,0,9.8-.4,14.6-1.3,299.2-56.5,231.2-284.1,231.2-284.1-1.8-41.6,66.9-87.7,110.7-123.4,43.5-35.4,38.4-103.1-10.4-130.8-1-.5-1.9-1.1-2.9-1.6-50.9-28.7-54.6-101-6.3-133.9,48.9-33.3,103.6-60.9,144.3-79.5,35-16,53.2-54.8,43.4-92l-16.2-61.7c-1.6-6.3-4.2-12.2-7.3-18-30-56.6-25.6-111.5-7.9-158.5,29.7-78.6,98.1-135.8,179-158.7,250.5-70.9,180.5-162,180.5-162,0,0-487.8-639.5-271-986.4,75.9-121.4,98.6-276,96.2-425.7-5.4-327.1-134.4-639.8-352.6-883.5-279.9-312.5-788.3-702.6-1559.1-763-669.5-52.4-1262.9,352.5-1538.7,762.4-311.7,463.4-486,1053.8-292.2,1577.5,365.9,988.5,1201.6,1017.8,1381,999.9,36.1-3.6,697.8-265.5,732.8,60.6,7.8,72.5-23.2,143.2-78.1,191.3-694.8,607.8-1727.3-70-1700.7-76.1-986.1-813.2-982.9-1866.6-728.4-2517.2,202.3-517.1,604.8-929.4,1101.3-1178.2,1053.8-528,1591.7-292.9,2266.5,13.1,844,382.7,1344.1,1498.1,1138.1,2083.5-205.9,585.3-90.3,451.6,133.7,1040.6,224,588.9-406.5,558.2-406.5,558.2"/>
  <path class="cls-1" d="M7968.2-1461.2c-74.3-154.6-271.4-233.5-554.8-222.1-43.8,1.8-89,5.7-135.4,11.6-14.8-44.3-30.8-86.8-48.2-127-112.5-260.4-268.9-403.9-440.5-403.9s-328,143.4-440.5,403.9c-17.4,40.2-33.4,82.7-48.2,127-46.3-5.9-91.6-9.8-135.4-11.6-283.5-11.4-480.5,67.5-554.8,222.1-73.7,153.3-13.7,354.3,168.6,566.4-182.3,212.2-242.2,413.1-168.6,566.4,69.6,144.8,246.8,223.2,501.8,223.2s35-.4,53-1.1c43.8-1.8,89-5.7,135.4-11.6,14.8,44.3,30.8,86.8,48.2,127,112.5,260.4,268.9,403.9,440.5,403.9s328-143.4,440.5-403.9c17.4-40.2,33.4-82.7,48.2-127,46.3,5.9,91.6,9.8,135.4,11.6,18,.7,35.7,1.1,53,1.1,255,0,432.2-78.4,501.8-223.2,73.7-153.3,13.8-354.3-168.6-566.4,182.3-212.2,242.2-413.1,168.6-566.4h0ZM7418.8-1549.4c16.3-.7,32.1-1,47.7-1,197.9,0,335.5,52.7,380.9,147.2,47.4,98.7-3.6,247.5-140.1,410.2-95.4-93.3-209.9-183.4-337.9-266.6-12.7-98.5-30.5-193-53.2-281.8,35-4,69.3-6.7,102.6-8h0ZM6992.5-472.1c-67.7,32.5-135.6,61.9-203.1,88-67.5-26.1-135.4-55.5-203.1-88-88-42.3-172.2-88.2-251.3-136.9-9.6-92.4-14.6-188.1-14.6-285.8s5-193.4,14.6-285.8c79.1-48.7,163.3-94.6,251.3-136.9,67.7-32.5,135.6-61.9,203.1-88,67.5,26.1,135.4,55.5,203.1,88,88,42.3,172.2,88.2,251.3,136.9,9.6,92.4,14.6,188.1,14.6,285.8s-5,193.4-14.6,285.8c-79.1,48.6-163.3,94.6-251.3,136.9h0ZM7220.4-439.8c-10.4,59.2-22.8,116.4-37.2,171.1-65.9-12.7-133.8-29.5-202.9-50.1,23.4-10.5,46.9-21.4,70.2-32.6,58.2-28,115-57.6,169.8-88.4h0ZM6598.5-318.7c-69.1,20.6-137,37.3-202.9,50.1-14.4-54.7-26.8-111.9-37.2-171.1,54.9,30.9,111.6,60.5,169.8,88.4,23.4,11.2,46.8,22.1,70.2,32.6h0ZM6192.7-703.4c-85.6-61.3-163-125.6-229.9-191.4,66.9-65.8,144.3-130.1,229.9-191.4-4.1,62.8-6.2,126.7-6.2,191.4s2.1,128.5,6.2,191.4ZM6358.5-1349.7c10.4-59.2,22.8-116.4,37.2-171.1,65.9,12.7,133.8,29.5,202.9,50.1-23.4,10.5-46.9,21.4-70.2,32.6-58.2,28-115,57.6-169.8,88.4h0ZM6980.3-1470.8c69.1-20.6,136.9-37.3,202.9-50.1,14.4,54.7,26.8,111.9,37.2,171.1-54.9-30.9-111.6-60.5-169.8-88.4-23.4-11.2-46.8-22.1-70.2-32.6h0ZM7386.2-1086.1c85.6,61.3,163,125.6,229.9,191.4-66.9,65.8-144.3,130.1-229.9,191.4,4.1-62.8,6.2-126.8,6.2-191.4s-2.1-128.5-6.2-191.4ZM6472-1745.6c88.7-205.3,204.4-323,317.4-323s228.8,117.7,317.4,323c13.2,30.6,25.6,62.7,37.2,96-114.5,23-233.9,57-354.7,101.1-120.8-44.1-240.2-78.1-354.7-101.1,11.6-33.3,24-65.3,37.2-96h0ZM5731.4-1403.2c45.4-94.5,183-147.2,380.9-147.2s31.4.3,47.7,1c33.3,1.3,67.6,4.1,102.6,8-22.7,88.8-40.5,183.4-53.2,281.8-128,83.2-242.4,173.3-337.9,266.6-136.5-162.7-187.6-311.5-140.1-410.2h0ZM6160-240.1c-223.4,9-379.6-44.3-428.6-146.2-47.4-98.7,3.6-247.5,140.1-410.2,95.4,93.3,209.8,183.4,337.9,266.6,12.7,98.5,30.5,193,53.2,281.8-35,4-69.3,6.7-102.6,8h0ZM7106.9-43.9c-88.7,205.3-204.4,323-317.4,323s-228.8-117.7-317.4-323c-13.2-30.6-25.6-62.7-37.2-96,114.5-23,233.9-57,354.7-101.1,120.8,44.1,240.2,78.1,354.7,101.1-11.6,33.3-24,65.3-37.2,96ZM7847.4-386.4c-49,101.9-205.2,155.2-428.6,146.2-33.3-1.3-67.6-4.1-102.6-8,22.7-88.8,40.5-183.4,53.2-281.8,128-83.2,242.4-173.3,337.9-266.6,136.5,162.7,187.6,311.5,140.1,410.2h0Z"/>
  <path class="cls-2" d="M6989.1-841.7c-5.4,23.7-14.6,45.9-27.1,65.9l41.6,41.4-67.7,68-41.4-41.3c-20.4,13-43.2,22.6-67.6,28v58.2h-96v-58.5c-23.7-5.5-45.9-14.9-65.8-27.5l-41.3,41.2-67.8-68,41.4-41.3c-12.6-20.1-21.9-42.3-27.2-66.1h-59.5v-95.9h59.7c5.4-23.6,14.8-45.8,27.4-65.7l-41.8-41.6,67.8-68,41.9,41.8c19.8-12.4,41.8-21.7,65.2-27.2v-59.5h96v59.1c24.1,5.4,46.7,14.9,67,27.7l42-41.9,67.7,68-42,41.8c12.5,19.9,21.8,42,27.2,65.5h58.2v95.9h-57.9,0Z"/>
</svg>