<?xml version="1.0" encoding="UTF-8"?>
<svg id="Camada_2" data-name="Camada 2" xmlns="http://www.w3.org/2000/svg" viewBox="0 0 10322.79 3204.71">
  <defs>
    <style>
      .cls-1 {
        fill: #1d3e86;
      }

      .cls-1, .cls-2, .cls-3, .cls-4 {
        stroke-width: 0px;
      }

      .cls-2 {
        fill: #010101;
      }

      .cls-3 {
        fill: #302d7d;
      }

      .cls-4 {
        fill: #fff;
      }
    </style>
  </defs>
  <g id="Camada_1-2" data-name="Camada 1">
    <g>
      <path class="cls-4" d="M10288.36,1238.29c-21.98-51.97-53.37-98.56-93.28-138.48-39.92-39.92-86.51-71.3-138.48-93.28-54.01-22.84-111.16-34.43-169.84-34.43h-819.34c-96.93,0-191.18,19.07-280.12,56.69-57.86,24.47-111.69,56.04-160.85,94.26-54.69-35.37-113.58-64.95-176.23-88.42-110.75-41.49-229.8-62.53-353.86-62.53h-531.57c-65.89,0-130.01,12.99-190.6,38.62-15.02,6.35-29.63,13.41-43.83,21.15-4.11-1.83-8.24-3.64-12.4-5.4-85.29-36.08-175.66-54.37-268.6-54.37h-575.5c-60.76,0-119.92,11.99-175.83,35.64-32.87,13.9-63.66,31.45-92.07,52.41-61.45-27.32-128.67-48.74-201.04-63.99-101.63-21.42-213.73-31.43-342.77-30.59l-38.81.25c1.57-19.12,2.37-38.4,2.37-57.83,0-89.95-16.99-176.89-50.51-258.41-33.92-82.51-83.26-155.93-146.63-218.22-125.71-123.56-295.65-191.6-478.52-191.6-93.48,0-183.56,17.75-266.08,51.56-78.56-33.91-165.25-51.55-255.37-51.55-69.79,0-137.56,10.17-201.44,30.24-17.99,5.65-35.56,12.04-52.7,19.17-9.41-3.41-18.95-6.63-28.63-9.62-37.79-11.7-77.57-20.1-118.95-25.16v-5.74h-95.96s-.04,0-.06,0h-619.76s-321.54,0-321.54,0c-37.12-5.9-74.99-8.89-113.08-8.89s-76.3,3.01-113.3,8.89h-11.81v1.97c-112.48,19.85-216.61,66.5-304.09,136.65-95.25-86.25-199.37-155.25-310.47-205.62C1974.62,108.1,1790.77,24.73,1563.28,4.59c-125.31-11.09-249.46-2.14-379.55,27.35-129.48,29.36-262.2,78.6-405.77,150.53-154.21,77.27-291.24,178.69-407.31,301.45-121.87,128.9-215.72,276.19-278.95,437.81-43.65,111.6-72.12,230.32-84.61,352.88-13.98,137.19-7.28,274.63,19.91,408.51,30.63,150.81,86.94,295.03,167.37,428.65,82.47,137.02,190.29,262.62,320.7,373.64,9.58,9.16,19.63,17.9,30.49,26.52,12.26,9.73,25.6,19.35,40.78,29.39,23.12,15.29,50.66,31.61,79.64,47.18,59.17,31.78,124.54,60.65,189.05,83.48,88.97,31.49,178.23,52.54,265.3,62.56.59.07,1.19.14,1.78.2,6.04,141.2,80.35,271.77,201.36,348.88,102.96,65.61,226.74,84.1,341.65,54.54,116.8,35.52,206.65,54.88,290.91,62.7,27.51,2.55,54.1,3.83,80.02,3.83,36,0,70.72-2.47,104.83-7.41,77.23-11.19,149.33-35.27,214.3-71.55,7.45-4.16,15.07-8.64,22.82-13.44,77.47,59.15,173.15,92.36,273.32,92.36h312.83c149.62,0,286.33-73.86,369.14-192.25,82.77,118.41,219.45,192.25,369.17,192.25,57.12,0,113.9-7.2,168.74-21.41,27.56-7.14,54.62-16.06,81.01-26.66,8.01,3.94,16.15,7.66,24.41,11.16,57.91,24.49,119.19,36.91,182.14,36.91h774.49c59.83,0,118.14-11.22,173.49-33.36,61.84,22.15,126.49,33.36,192.63,33.36,1.27,0,2.54,0,3.81-.01l428.82-2.77c129.41-.84,247.8-14.89,351.87-41.76,43.77-11.3,85.63-25.01,125.45-41.04,27.47,19.88,57.12,36.59,88.7,49.95,55.91,23.65,115.07,35.64,175.83,35.64h591.64c93.1,0,183.62-18.32,269.05-54.46,1.06-.45,2.12-.91,3.17-1.36,11.87,6.21,24.02,11.95,36.45,17.21,60.59,25.63,124.71,38.62,190.6,38.62,95.04,0,187.45-18.7,274.67-55.59,65.79-27.83,126.27-65,180.46-110.85,19.73,14.22,40.07,27.64,61,40.24,137.25,82.58,294.46,126.22,454.64,126.22,87.82,0,173.99-23.54,249.22-68.08,28.77-17.04,55.7-37.02,80.33-59.51,39.88,39.85,86.43,71.19,138.33,93.14,54.01,22.84,111.15,34.43,169.84,34.43h324.32c58.69,0,115.83-11.58,169.84-34.43,51.97-21.98,98.56-53.37,138.48-93.28,39.92-39.92,71.3-86.51,93.28-138.48,22.84-54.01,34.43-111.16,34.43-169.84v-721.31c65.79-33.95,125.64-77.71,178.47-130.54,65.93-65.93,117.74-142.82,153.99-228.53,37.62-88.94,56.69-183.18,56.69-280.12,0-58.69-11.58-115.83-34.43-169.84ZM1766.94,3097.71c.28-.16.57-.31.85-.47l.27-.15c-.37.21-.74.41-1.12.62ZM5550.34,2403.04l-.21-33.07s0-.1,0-.15l.22,33.22h0Z"/>
      <g>
        <g>
          <g>
            <path class="cls-2" d="M4778.4,2415.39h-148.41c-37.34,0-67.61-30.27-67.61-67.61v-935.92c0-37.34-30.27-67.61-67.61-67.61h0c-183.51,0-332.28,148.76-332.28,332.28v1032.68c0,37.34,30.27,67.61,67.61,67.61h774.49c37.34,0,67.61-30.27,67.61-67.61h0c0-162.26-131.54-293.8-293.8-293.8h0Z"/>
            <path class="cls-2" d="M3622.56,2544.13h-435.54c-21.58,0-40.78,13.74-47.74,34.16l-56.04,164.35c-6.97,20.42-26.16,34.16-47.74,34.16h-312.83c-35.55,0-59.95-35.79-46.95-68.88l407.09-1036.34c77.57-197.47,268.11-327.33,480.26-327.33h0c20.6,0,39.14,12.53,46.81,31.65l413.93,1031.14c71.06,177-59.27,369.77-250.01,369.77h0c-21.61,0-40.83-13.77-47.77-34.24l-55.7-164.2c-6.94-20.46-26.15-34.24-47.77-34.24h0ZM3356.68,1925.27l-85.84,242.77c-11.61,32.82,12.74,67.26,47.55,67.26h172.46c34.87,0,59.23-34.54,47.51-67.39l-86.62-242.77c-15.96-44.72-79.23-44.63-95.06.13h0Z"/>
            <path class="cls-2" d="M7427.74,2485.9h0c0,160.66-130.24,290.9-290.9,290.9h-591.64c-28.4,0-51.42-23.02-51.42-51.42v-1329.72c0-28.4,23.02-51.42,51.42-51.42h575.5c160.02,0,289.74,129.72,289.74,289.74h0c0,28.4-23.02,51.42-51.42,51.42h-420.89c-28.4,0-51.42,23.02-51.42,51.42v108.08c0,28.4,23.02,51.42,51.42,51.42h367.68c28.4,0,51.42,23.02,51.42,51.42v220.88c0,28.4-23.02,51.42-51.42,51.42h-367.68c-28.4,0-51.42,23.02-51.42,51.42v111.62c0,28.4,23.02,51.42,51.42,51.42h438.21c28.4,0,51.42,23.02,51.42,51.42v-.02Z"/>
            <path class="cls-2" d="M8030.78,2338.48h0c-49.34,0-89.34,40-89.34,89.34v43.65c0,168.63-136.7,305.33-305.33,305.33h0c-49.34,0-89.34-40-89.34-89.34v-1253.88c0-49.34,40-89.34,89.34-89.34h531.57c308.84,0,532.71,207.51,532.71,506.99,0,149.47-62.08,276-167.66,362.62-33.14,27.19-42.16,74.14-21.62,111.76l174.19,319.06c32.5,59.54-10.59,132.16-78.41,132.16h0c-178.39,0-342.18-98.54-425.75-256.15l-71.42-134.7c-15.5-29.22-45.86-47.49-78.93-47.49h0ZM7941.43,1916.68c0,49.34,40,89.34,89.34,89.34h90.93c110.33,0,173.83-66.43,173.83-155.98s-63.5-155.09-173.83-155.09h-90.93c-49.34,0-89.34,40-89.34,89.34v132.39h0Z"/>
            <path class="cls-2" d="M9674.79,1699.6h-33.79c-19.9,0-36.03,16.13-36.03,36.03v1005.13c0,19.9-16.13,36.03-36.03,36.03h-324.32c-19.9,0-36.03-16.13-36.03-36.03v-1005.13c0-19.9-16.13-36.03-36.03-36.03h-317.1c-19.9,0-36.03-16.13-36.03-36.03h0c0-176.36,142.96-319.33,319.33-319.33h819.34c19.9,0,36.03,16.13,36.03,36.03h0c0,176.36-142.96,319.33-319.33,319.33h0Z"/>
            <path class="cls-2" d="M6374.74,2345.46c1.79,277.07-184.02,426.05-573.98,428.57l-428.82,2.77c-95.28.62-173.03-76.13-173.65-171.41l-7.05-1091.62c-.62-95.28,76.13-173.03,171.42-173.65l373.41-2.41c396.11-2.56,579.58,121.45,581.28,384.16.91,141.61-60.06,234.37-166.43,290.47l.06,8.21c139.96,60.67,222.73,164.81,223.77,324.9ZM5617.67,1755.12l.99,153.93,102.62-.67c108.78-.71,165.94-48.28,165.4-130.38-.56-86.2-66.49-126.82-167.06-126.17h0c-56.67.36-102.32,46.61-101.96,103.28h0ZM5945.55,2311.28c-.57-88.25-62.41-128.9-167.09-128.23h0c-87.28.56-157.57,71.77-157.01,159.06l.67,102.62,158.03-1.02c102.62-.67,165.95-46.23,165.4-132.43h0Z"/>
          </g>
          <g>
            <path class="cls-2" d="M3041.25,957.2l131.7,83.73c-48.24,65.95-128.64,108.18-225.12,108.18-160.8,0-275.66-115.6-275.66-268.98s114.86-268.23,275.66-268.23c96.48,0,176.89,41.49,225.12,108.18l-131.7,83.73c-19.91-26.68-52.07-43.72-93.42-43.72-73.51,0-117.15,52.61-117.15,120.04s43.64,120.04,117.15,120.04c41.35,0,73.51-16.3,93.42-42.98h0Z"/>
            <path class="cls-2" d="M3698.23,620.8v307.51c0,154.13-91.89,220.81-237.37,220.81s-238.14-66.69-238.14-220.81v-307.51h158.5v294.17c0,58.54,30.63,85.21,79.64,85.21s78.87-26.68,78.87-85.21v-294.17h158.51Z"/>
            <path class="cls-2" d="M3999.14,972.76h-58.19v166.72h-158.5v-518.68h219.76c147.79,0,219.76,71.87,219.76,185.99,0,65.95-27.57,111.14-76.57,137.08l114.09,195.62h-173.05l-87.29-166.72h0ZM3940.95,852.72h61.26c35.99,0,59.73-11.85,59.73-45.94,0-31.12-18.38-46.68-59.73-46.68h-61.26v92.62Z"/>
            <path class="cls-2" d="M4711.27,980.91c0,90.4-79.63,168.2-210.57,168.2-97.24,0-203.68-35.56-225.88-139.31l135.53-40.75c3.06,26.68,33.69,51.87,83.46,51.87,41.35,0,59.73-17.78,59.73-37.79,0-31.12-40.58-34.09-94.18-46.68-103.37-23.71-163.09-65.21-163.09-159.31,0-99.29,85.76-165.24,203.68-165.24,94.19,0,176.88,46.68,196.79,136.34l-134.77,31.86c-6.13-20.75-24.5-40.02-60.49-40.02-30.63,0-53.6,12.6-53.6,36.31,0,29.64,46.7,34.09,88.05,45.2,130.93,34.83,175.35,77.06,175.35,159.31h0Z"/>
            <path class="cls-2" d="M5297.04,880.14c0,153.38-114.86,268.98-275.66,268.98s-275.66-115.6-275.66-268.98,114.86-268.23,275.66-268.23,275.66,115.6,275.66,268.23ZM5138.53,880.14c0-67.43-43.64-120.04-117.15-120.04s-117.15,52.61-117.15,120.04,43.64,120.04,117.15,120.04,117.15-51.87,117.15-120.04Z"/>
          </g>
        </g>
        <g>
          <path class="cls-3" d="M2292.53,2166.33c19.25,75.38-6.98,118.35-28.15,139.38-11.15,11.1-14.14,27.93-6.94,41.94,44.13,85.54-7.97,125.51-38.94,140.73-12,5.91-19.78,17.95-19.78,31.33v59.26c0,3.04-.36,6.13-1.16,9.09-61.1,233.78-251.06,211.76-490.48,138.62-110.42-33.75-171.3-25.65-204.78-7.03-24.35,13.52-53.8-6.36-51.83-34.15,2.55-35.58,13.7-76.27,43.95-112.44,74.39-88.94,252.27-11.32,297.56,3.22,40.55,13.03,130.43,14.41,148.74,14.55,2.19,0,4.39-.18,6.53-.58,133.92-25.29,103.48-127.16,103.48-127.16-.81-18.62,29.94-39.25,49.55-55.23,19.47-15.85,17.19-46.15-4.66-58.55-.45-.22-.85-.49-1.3-.72-22.78-12.85-24.44-45.21-2.82-59.93,21.89-14.91,46.37-27.26,64.59-35.58,15.67-7.16,23.81-24.53,19.43-41.18l-7.25-27.62c-.72-2.82-1.88-5.46-3.27-8.06-13.43-25.33-11.46-49.91-3.54-70.94,13.29-35.18,43.91-60.78,80.12-71.03,112.12-31.73,80.79-72.51,80.79-72.51,0,0-218.34-286.24-121.3-441.51,33.97-54.34,44.13-123.54,43.06-190.54-2.42-146.41-60.16-286.37-157.82-395.45-125.28-139.87-352.84-314.48-697.85-341.52-299.67-23.45-565.27,157.78-688.72,341.25-139.52,207.42-217.53,471.68-130.79,706.09,163.78,442.45,537.84,455.57,618.13,447.55,16.16-1.61,312.33-118.84,328,27.12,3.49,32.45-10.38,64.1-34.96,85.63-310.99,272.05-773.14-31.33-761.23-34.06-441.38-363.99-439.95-835.49-326.03-1126.7,90.55-231.45,270.71-416,492.94-527.36,471.68-236.33,712.44-131.1,1014.48,5.86,377.77,171.3,601.62,670.55,509.41,932.57-92.16,261.98-40.42,202.14,59.84,465.77,100.26,263.59-181.95,249.85-181.95,249.85"/>
          <path class="cls-2" d="M1870.27,1059.6c-33.26-69.2-121.48-104.51-248.33-99.41-19.6.81-39.84,2.55-60.6,5.19-6.62-19.83-13.79-38.85-21.57-56.85-50.35-116.55-120.36-180.79-197.17-180.79s-146.81,64.19-197.17,180.79c-7.79,17.99-14.95,37.02-21.57,56.85-20.72-2.64-41-4.39-60.6-5.19-126.89-5.1-215.07,30.21-248.33,99.41-32.99,68.62-6.13,158.58,75.47,253.52-81.6,94.98-108.41,184.9-75.47,253.52,31.15,64.81,110.47,99.9,224.61,99.9s15.67-.18,23.72-.49c19.6-.81,39.84-2.55,60.6-5.19,6.62,19.83,13.79,38.85,21.57,56.85,50.35,116.55,120.36,180.79,197.17,180.79s146.81-64.19,197.17-180.79c7.79-17.99,14.95-37.02,21.57-56.85,20.72,2.64,41,4.39,60.6,5.19,8.06.31,15.98.49,23.72.49,114.14,0,193.45-35.09,224.61-99.9,32.99-68.62,6.18-158.58-75.47-253.52,81.6-94.98,108.41-184.9,75.47-253.52h0ZM1624.35,1020.12c7.3-.31,14.37-.45,21.35-.45,88.58,0,150.17,23.59,170.49,65.89,21.22,44.18-1.61,110.78-62.71,183.61-42.7-41.76-93.95-82.09-151.24-119.33-5.68-44.09-13.65-86.39-23.81-126.13,15.67-1.79,31.02-3,45.92-3.58h0ZM1433.54,1502.32c-30.3,14.55-60.69,27.71-90.91,39.39-30.21-11.68-60.6-24.84-90.91-39.39-39.39-18.93-77.08-39.48-112.48-61.28-4.3-41.36-6.53-84.19-6.53-127.92s2.24-86.57,6.53-127.92c35.41-21.8,73.09-42.34,112.48-61.28,30.3-14.55,60.69-27.71,90.91-39.39,30.21,11.68,60.6,24.84,90.91,39.39,39.39,18.93,77.08,39.48,112.48,61.28,4.3,41.36,6.53,84.19,6.53,127.92s-2.24,86.57-6.53,127.92c-35.41,21.75-73.09,42.34-112.48,61.28h0ZM1535.55,1516.78c-4.65,26.5-10.21,52.1-16.65,76.58-29.5-5.68-59.89-13.2-90.82-22.42,10.47-4.7,20.99-9.58,31.42-14.59,26.05-12.53,51.47-25.78,76-39.57h.04ZM1257.19,1570.98c-30.93,9.22-61.32,16.7-90.82,22.42-6.45-24.48-12-50.09-16.65-76.58,24.57,13.83,49.95,27.08,76,39.57,10.47,5.01,20.95,9.89,31.42,14.59h.04ZM1075.55,1398.79c-38.31-27.44-72.96-56.22-102.9-85.67,29.94-29.45,64.59-58.23,102.9-85.67-1.84,28.11-2.78,56.71-2.78,85.67s.94,57.52,2.78,85.67ZM1149.76,1109.51c4.65-26.5,10.21-52.1,16.65-76.58,29.5,5.68,59.89,13.2,90.82,22.42-10.47,4.7-20.99,9.58-31.42,14.59-26.05,12.53-51.47,25.78-76,39.57h-.04ZM1428.08,1055.3c30.93-9.22,61.28-16.7,90.82-22.42,6.45,24.48,12,50.09,16.65,76.58-24.57-13.83-49.95-27.08-76-39.57-10.47-5.01-20.95-9.89-31.42-14.59h-.04ZM1609.76,1227.5c38.31,27.44,72.96,56.22,102.9,85.67-29.94,29.45-64.59,58.23-102.9,85.67,1.84-28.11,2.78-56.76,2.78-85.67s-.94-57.52-2.78-85.67ZM1200.57,932.3c39.7-91.89,91.49-144.57,142.07-144.57s102.41,52.68,142.07,144.57c5.91,13.7,11.46,28.06,16.65,42.97-51.25,10.29-104.69,25.51-158.76,45.25-54.07-19.74-107.51-34.96-158.76-45.25,5.19-14.91,10.74-29.23,16.65-42.97h.09ZM869.08,1085.56c20.32-42.3,81.91-65.89,170.49-65.89s14.05.13,21.35.45c14.9.58,30.26,1.84,45.92,3.58-10.16,39.75-18.13,82.09-23.81,126.13-57.29,37.24-108.5,77.57-151.24,119.33-61.1-72.82-83.97-139.43-62.71-183.61h0ZM1060.92,1606.16c-99.99,4.03-169.91-19.83-191.84-65.44-21.22-44.18,1.61-110.78,62.71-183.61,42.7,41.76,93.91,82.09,151.24,119.33,5.68,44.09,13.65,86.39,23.81,126.13-15.67,1.79-31.02,3-45.92,3.58h0ZM1484.75,1693.98c-39.7,91.89-91.49,144.57-142.07,144.57s-102.41-52.68-142.07-144.57c-5.91-13.7-11.46-28.06-16.65-42.97,51.25-10.29,104.69-25.51,158.76-45.25,54.07,19.74,107.51,34.96,158.76,45.25-5.19,14.91-10.74,29.23-16.65,42.97h-.09ZM1816.2,1540.68c-21.93,45.61-91.85,69.47-191.84,65.44-14.9-.58-30.26-1.84-45.92-3.58,10.16-39.75,18.13-82.09,23.81-126.13,57.29-37.24,108.5-77.57,151.24-119.33,61.1,72.82,83.97,139.43,62.71,183.61h0Z"/>
          <path class="cls-1" d="M1432.02,1336.89c-2.42,10.61-6.53,20.54-12.13,29.5l18.62,18.53-30.3,30.44-18.53-18.49c-9.13,5.82-19.34,10.12-30.26,12.53v26.05h-42.97v-26.18c-10.61-2.46-20.54-6.67-29.45-12.31l-18.49,18.44-30.35-30.44,18.53-18.49c-5.64-9-9.8-18.93-12.17-29.59h-26.63v-42.92h26.72c2.42-10.56,6.62-20.5,12.26-29.41l-18.71-18.62,30.35-30.44,18.75,18.71c8.86-5.55,18.71-9.71,29.18-12.17v-26.63h42.97v26.45c10.79,2.42,20.9,6.67,29.99,12.4l18.8-18.75,30.3,30.44-18.8,18.71c5.59,8.91,9.76,18.8,12.17,29.32h26.05v42.92h-25.92Z"/>
        </g>
      </g>
    </g>
  </g>
</svg>