<?xml version="1.0" encoding="UTF-8"?>
<svg id="Camada_1" data-name="Camada 1" xmlns="http://www.w3.org/2000/svg" viewBox="0 0 1337.01 429.96">
  <defs>
    <style>
      .cls-1 {
        fill: #000;
      }

      .cls-1, .cls-2 {
        stroke-width: 0px;
      }

      .cls-2 {
        fill: #004aac;
      }
    </style>
  </defs>
  <g>
    <g>
      <path class="cls-1" d="M685.93,310.99h-18.53c-4.66,0-8.44-3.78-8.44-8.44v-116.83c0-4.66-3.78-8.44-8.44-8.44h0c-22.91,0-41.48,18.57-41.48,41.48v128.91c0,4.66,3.78,8.44,8.44,8.44h96.68c4.66,0,8.44-3.78,8.44-8.44h0c0-20.26-16.42-36.67-36.67-36.67h0Z"/>
      <path class="cls-1" d="M541.65,327.06h-54.37c-2.69,0-5.09,1.71-5.96,4.26l-7,20.52c-.87,2.55-3.27,4.26-5.96,4.26h-39.05c-4.44,0-7.48-4.47-5.86-8.6l50.82-129.37c9.68-24.65,33.47-40.86,59.95-40.86h0c2.57,0,4.89,1.56,5.84,3.95l51.67,128.72c8.87,22.1-7.4,46.16-31.21,46.16h0c-2.7,0-5.1-1.72-5.96-4.27l-6.95-20.5c-.87-2.55-3.26-4.27-5.96-4.27h0ZM508.46,249.81l-10.72,30.3c-1.45,4.1,1.59,8.4,5.94,8.4h21.53c4.35,0,7.39-4.31,5.93-8.41l-10.81-30.3c-1.99-5.58-9.89-5.57-11.87.02h0Z"/>
      <path class="cls-1" d="M1016.65,319.79h0c0,20.06-16.26,36.31-36.31,36.31h-73.86c-3.55,0-6.42-2.87-6.42-6.42v-165.99c0-3.55,2.87-6.42,6.42-6.42h71.84c19.97,0,36.17,16.19,36.17,36.17h0c0,3.55-2.87,6.42-6.42,6.42h-52.54c-3.55,0-6.42,2.87-6.42,6.42v13.49c0,3.55,2.87,6.42,6.42,6.42h45.9c3.55,0,6.42,2.87,6.42,6.42v27.57c0,3.55-2.87,6.42-6.42,6.42h-45.9c-3.55,0-6.42,2.87-6.42,6.42v13.93c0,3.55,2.87,6.42,6.42,6.42h54.7c3.55,0,6.42,2.87,6.42,6.42h0Z"/>
      <path class="cls-1" d="M1091.93,301.39h0c-6.16,0-11.15,4.99-11.15,11.15v5.45c0,21.05-17.06,38.11-38.11,38.11h0c-6.16,0-11.15-4.99-11.15-11.15v-156.52c0-6.16,4.99-11.15,11.15-11.15h66.36c38.55,0,66.5,25.9,66.5,63.29,0,18.66-7.75,34.45-20.93,45.27-4.14,3.39-5.26,9.25-2.7,13.95l21.74,39.83c4.06,7.43-1.32,16.5-9.79,16.5h0c-22.27,0-42.71-12.3-53.15-31.97l-8.92-16.81c-1.93-3.65-5.72-5.93-9.85-5.93h0ZM1080.78,248.74c0,6.16,4.99,11.15,11.15,11.15h11.35c13.77,0,21.7-8.29,21.7-19.47s-7.93-19.36-21.7-19.36h-11.35c-6.16,0-11.15,4.99-11.15,11.15v16.53h0Z"/>
      <path class="cls-1" d="M1297.15,221.64h-4.22c-2.48,0-4.5,2.01-4.5,4.5v125.47c0,2.48-2.01,4.5-4.5,4.5h-40.49c-2.48,0-4.5-2.01-4.5-4.5v-125.47c0-2.48-2.01-4.5-4.5-4.5h-39.58c-2.48,0-4.5-2.01-4.5-4.5h0c0-22.02,17.85-39.86,39.86-39.86h102.28c2.48,0,4.5,2.01,4.5,4.5h0c0,22.02-17.85,39.86-39.86,39.86h0Z"/>
      <path class="cls-1" d="M885.21,302.26c.22,34.59-22.97,53.18-71.65,53.5l-53.53.35c-11.89.08-21.6-9.5-21.68-21.4l-.88-136.27c-.08-11.89,9.5-21.6,21.4-21.68l46.61-.3c49.45-.32,72.35,15.16,72.56,47.95.11,17.68-7.5,29.26-20.78,36.26v1.03c17.48,7.57,27.81,20.57,27.94,40.56ZM790.7,228.57l.12,19.22,12.81-.08c13.58-.09,20.71-6.03,20.65-16.28-.07-10.76-8.3-15.83-20.85-15.75h0c-7.07.05-12.77,5.82-12.73,12.89h0ZM831.63,298c-.07-11.02-7.79-16.09-20.86-16.01h0c-10.89.07-19.67,8.96-19.6,19.85l.08,12.81,19.73-.13c12.81-.08,20.72-5.77,20.65-16.53h0Z"/>
    </g>
    <g>
      <path class="cls-1" d="M469.09,128.97l16.44,10.45c-6.02,8.23-16.06,13.5-28.1,13.5-20.07,0-34.41-14.43-34.41-33.58s14.34-33.48,34.41-33.48c12.04,0,22.08,5.18,28.1,13.5l-16.44,10.45c-2.49-3.33-6.5-5.46-11.66-5.46-9.18,0-14.62,6.57-14.62,14.98s5.45,14.98,14.62,14.98c5.16,0,9.18-2.03,11.66-5.36h0Z"/>
      <path class="cls-1" d="M551.1,86.97v38.39c0,19.24-11.47,27.56-29.63,27.56s-29.73-8.32-29.73-27.56v-38.39h19.79v36.72c0,7.31,3.82,10.64,9.94,10.64s9.84-3.33,9.84-10.64v-36.72h19.79Z"/>
      <path class="cls-1" d="M588.66,130.91h-7.26v20.81h-19.79v-64.75h27.43c18.45,0,27.43,8.97,27.43,23.22,0,8.23-3.44,13.87-9.56,17.11l14.24,24.42h-21.6l-10.9-20.81h0ZM581.4,115.92h7.65c4.49,0,7.46-1.48,7.46-5.74,0-3.88-2.29-5.83-7.46-5.83h-7.65v11.56Z"/>
      <path class="cls-1" d="M677.55,131.92c0,11.28-9.94,21-26.29,21-12.14,0-25.43-4.44-28.2-17.39l16.92-5.09c.38,3.33,4.21,6.48,10.42,6.48,5.16,0,7.46-2.22,7.46-4.72,0-3.88-5.07-4.26-11.76-5.83-12.9-2.96-20.36-8.14-20.36-19.89,0-12.39,10.71-20.63,25.43-20.63,11.76,0,22.08,5.83,24.56,17.02l-16.82,3.98c-.76-2.59-3.06-5-7.55-5-3.82,0-6.69,1.57-6.69,4.53,0,3.7,5.83,4.26,10.99,5.64,16.34,4.35,21.89,9.62,21.89,19.89h0Z"/>
      <path class="cls-1" d="M750.68,119.35c0,19.15-14.34,33.58-34.41,33.58s-34.41-14.43-34.41-33.58,14.34-33.48,34.41-33.48,34.41,14.43,34.41,33.48ZM730.89,119.35c0-8.42-5.45-14.98-14.62-14.98s-14.62,6.57-14.62,14.98,5.45,14.98,14.62,14.98,14.62-6.48,14.62-14.98Z"/>
    </g>
  </g>
  <g>
    <path class="cls-2" d="M351.15,320.8c3.44,13.48-1.25,21.16-5.03,24.92-1.99,1.98-2.53,4.99-1.24,7.5,7.89,15.29-1.42,22.44-6.96,25.16-2.14,1.06-3.54,3.21-3.54,5.6v10.6c0,.54-.06,1.1-.21,1.62-10.92,41.8-44.89,37.86-87.7,24.79-19.74-6.03-30.63-4.59-36.62-1.26-4.35,2.42-9.62-1.14-9.27-6.11.46-6.36,2.45-13.64,7.86-20.1,13.3-15.9,45.11-2.02,53.21.58,7.25,2.33,23.32,2.58,26.6,2.6.39,0,.78-.03,1.17-.1,23.95-4.52,18.5-22.74,18.5-22.74-.14-3.33,5.35-7.02,8.86-9.88,3.48-2.83,3.07-8.25-.83-10.47-.08-.04-.15-.09-.23-.13-4.07-2.3-4.37-8.08-.5-10.72,3.91-2.67,8.29-4.87,11.55-6.36,2.8-1.28,4.26-4.39,3.47-7.36l-1.3-4.94c-.13-.5-.34-.98-.58-1.44-2.4-4.53-2.05-8.92-.63-12.69,2.38-6.29,7.85-10.87,14.33-12.7,20.05-5.67,14.45-12.97,14.45-12.97,0,0-39.04-51.18-21.69-78.95,6.07-9.72,7.89-22.09,7.7-34.07-.43-26.18-10.76-51.21-28.22-70.71-22.4-25.01-63.09-56.23-124.78-61.07-53.58-4.19-101.07,28.21-123.15,61.02-24.95,37.09-38.9,84.34-23.39,126.25,29.28,79.11,96.17,81.46,110.53,80.03,2.89-.29,55.85-21.25,58.65,4.85.62,5.8-1.86,11.46-6.25,15.31-55.61,48.64-138.24-5.6-136.11-6.09C-9.14,255.71-8.89,171.41,11.48,119.34,27.67,77.95,59.88,44.95,99.62,25.04c84.34-42.26,127.39-23.44,181.4,1.05,67.55,30.63,107.57,119.9,91.09,166.75-16.48,46.84-7.23,36.14,10.7,83.28,17.93,47.13-32.53,44.67-32.53,44.67"/>
    <path class="cls-1" d="M275.65,122.91c-5.95-12.37-21.72-18.69-44.4-17.78-3.51.14-7.12.46-10.84.93-1.18-3.55-2.47-6.95-3.86-10.16-9-20.84-21.52-32.33-35.25-32.33s-26.25,11.48-35.25,32.33c-1.39,3.22-2.67,6.62-3.86,10.16-3.71-.47-7.33-.78-10.84-.93-22.69-.91-38.46,5.4-44.4,17.78-5.9,12.27-1.1,28.36,13.49,45.33-14.59,16.98-19.38,33.06-13.49,45.33,5.57,11.59,19.75,17.86,40.16,17.86s2.8-.03,4.24-.09c3.51-.14,7.12-.46,10.84-.93,1.18,3.55,2.47,6.95,3.86,10.16,9,20.84,21.52,32.33,35.25,32.33s26.25-11.48,35.25-32.33c1.39-3.22,2.67-6.62,3.86-10.16,3.71.47,7.33.78,10.84.93,1.44.06,2.86.09,4.24.09,20.41,0,34.59-6.27,40.16-17.86,5.9-12.27,1.1-28.36-13.49-45.33,14.59-16.98,19.38-33.06,13.49-45.33h0ZM231.68,115.85c1.3-.06,2.57-.08,3.82-.08,15.84,0,26.85,4.22,30.48,11.78,3.79,7.9-.29,19.81-11.21,32.83-7.64-7.47-16.8-14.68-27.04-21.34-1.02-7.88-2.44-15.45-4.26-22.55,2.8-.32,5.55-.54,8.21-.64h0ZM197.56,202.07c-5.42,2.6-10.85,4.95-16.25,7.04-5.4-2.09-10.84-4.44-16.25-7.04-7.04-3.39-13.78-7.06-20.11-10.96-.77-7.4-1.17-15.05-1.17-22.87s.4-15.48,1.17-22.87c6.33-3.9,13.07-7.57,20.11-10.96,5.42-2.6,10.85-4.95,16.25-7.04,5.4,2.09,10.84,4.44,16.25,7.04,7.04,3.39,13.78,7.06,20.11,10.96.77,7.4,1.17,15.05,1.17,22.87s-.4,15.48-1.17,22.87c-6.33,3.89-13.07,7.57-20.11,10.96h0ZM215.8,204.66c-.83,4.74-1.82,9.32-2.98,13.69-5.27-1.02-10.71-2.36-16.24-4.01,1.87-.84,3.75-1.71,5.62-2.61,4.66-2.24,9.2-4.61,13.59-7.07h0ZM166.02,214.35c-5.53,1.65-10.96,2.99-16.24,4.01-1.15-4.38-2.14-8.96-2.98-13.69,4.39,2.47,8.93,4.84,13.59,7.07,1.87.9,3.75,1.77,5.62,2.61h0ZM133.55,183.56c-6.85-4.91-13.05-10.05-18.4-15.32,5.35-5.27,11.55-10.41,18.4-15.32-.33,5.03-.5,10.14-.5,15.32s.17,10.28.5,15.32ZM146.82,131.84c.83-4.74,1.82-9.32,2.98-13.69,5.27,1.02,10.71,2.36,16.24,4.01-1.87.84-3.75,1.71-5.62,2.61-4.66,2.24-9.2,4.61-13.59,7.07h0ZM196.58,122.14c5.53-1.65,10.96-2.99,16.24-4.01,1.15,4.38,2.14,8.96,2.98,13.69-4.39-2.47-8.93-4.84-13.59-7.07-1.87-.9-3.75-1.77-5.62-2.61h0ZM229.07,152.93c6.85,4.91,13.05,10.05,18.4,15.32-5.35,5.27-11.55,10.41-18.4,15.32.33-5.03.5-10.15.5-15.32s-.17-10.28-.5-15.32ZM155.9,100.15c7.1-16.43,16.36-25.85,25.4-25.85s18.31,9.42,25.4,25.85c1.06,2.45,2.05,5.02,2.98,7.68-9.16,1.84-18.72,4.56-28.39,8.09-9.67-3.53-19.22-6.25-28.39-8.09.93-2.67,1.92-5.23,2.98-7.68h.02ZM96.63,127.55c3.63-7.56,14.65-11.78,30.48-11.78s2.51.02,3.82.08c2.67.1,5.41.33,8.21.64-1.82,7.11-3.24,14.68-4.26,22.55-10.24,6.66-19.4,13.87-27.04,21.34-10.92-13.02-15.01-24.93-11.21-32.83h0ZM130.93,220.64c-17.88.72-30.38-3.55-34.3-11.7-3.79-7.9.29-19.81,11.21-32.83,7.64,7.47,16.79,14.68,27.04,21.34,1.02,7.88,2.44,15.45,4.26,22.55-2.8.32-5.55.54-8.21.64h0ZM206.71,236.34c-7.1,16.43-16.36,25.85-25.4,25.85s-18.31-9.42-25.4-25.85c-1.06-2.45-2.05-5.02-2.98-7.68,9.16-1.84,18.72-4.56,28.39-8.09,9.67,3.53,19.22,6.25,28.39,8.09-.93,2.67-1.92,5.23-2.98,7.68h-.02ZM265.98,208.93c-3.92,8.16-16.42,12.42-34.3,11.7-2.67-.1-5.41-.33-8.21-.64,1.82-7.11,3.24-14.68,4.26-22.55,10.24-6.66,19.4-13.87,27.04-21.34,10.92,13.02,15.01,24.93,11.21,32.83h0Z"/>
    <path class="cls-2" d="M197.29,172.49c-.43,1.9-1.17,3.67-2.17,5.27l3.33,3.31-5.42,5.44-3.31-3.31c-1.63,1.04-3.46,1.81-5.41,2.24v4.66h-7.68v-4.68c-1.9-.44-3.67-1.19-5.27-2.2l-3.31,3.3-5.43-5.44,3.31-3.31c-1.01-1.61-1.75-3.39-2.18-5.29h-4.76v-7.68h4.78c.43-1.89,1.18-3.67,2.19-5.26l-3.35-3.33,5.43-5.44,3.35,3.35c1.58-.99,3.35-1.74,5.22-2.18v-4.76h7.68v4.73c1.93.43,3.74,1.19,5.36,2.22l3.36-3.35,5.42,5.44-3.36,3.35c1,1.59,1.74,3.36,2.18,5.24h4.66v7.68h-4.63Z"/>
  </g>
</svg>