<?xml version="1.0" encoding="UTF-8"?>
<svg id="Camada_2" data-name="Camada 2" xmlns="http://www.w3.org/2000/svg" viewBox="0 0 9665.45 2404.62">
  <defs>
    <style>
      .cls-1 {
        fill: #1d3e86;
      }

      .cls-1, .cls-2, .cls-3 {
        stroke-width: 0px;
      }

      .cls-2 {
        fill: #010101;
      }

      .cls-3 {
        fill: #302d7d;
      }
    </style>
  </defs>
  <g id="Camada_1-2" data-name="Camada 1">
    <g>
      <g>
        <path class="cls-2" d="M4449.73,2043.19h-148.41c-37.34,0-67.61-30.27-67.61-67.61v-935.92c0-37.34-30.27-67.61-67.61-67.61h0c-183.51,0-332.28,148.76-332.28,332.28v1032.68c0,37.34,30.27,67.61,67.61,67.61h774.49c37.34,0,67.61-30.27,67.61-67.61h0c0-162.26-131.54-293.8-293.8-293.8h0Z"/>
        <path class="cls-2" d="M3293.89,2171.94h-435.54c-21.58,0-40.78,13.74-47.74,34.16l-56.04,164.35c-6.97,20.42-26.16,34.16-47.74,34.16h-312.83c-35.55,0-59.95-35.79-46.95-68.88l407.09-1036.34c77.57-197.47,268.11-327.33,480.26-327.33h0c20.6,0,39.14,12.53,46.81,31.65l413.93,1031.14c71.06,177-59.27,369.77-250.01,369.77h0c-21.61,0-40.83-13.77-47.77-34.24l-55.7-164.2c-6.94-20.46-26.15-34.24-47.77-34.24h0ZM3028.01,1553.08l-85.84,242.77c-11.61,32.82,12.74,67.26,47.55,67.26h172.46c34.87,0,59.23-34.54,47.51-67.39l-86.62-242.77c-15.96-44.72-79.23-44.63-95.06.13h0Z"/>
        <path class="cls-2" d="M7099.07,2113.7h0c0,160.66-130.24,290.9-290.9,290.9h-591.64c-28.4,0-51.42-23.02-51.42-51.42V1023.47c0-28.4,23.02-51.42,51.42-51.42h575.5c160.02,0,289.74,129.72,289.74,289.74h0c0,28.4-23.02,51.42-51.42,51.42h-420.89c-28.4,0-51.42,23.02-51.42,51.42v108.08c0,28.4,23.02,51.42,51.42,51.42h367.68c28.4,0,51.42,23.02,51.42,51.42v220.88c0,28.4-23.02,51.42-51.42,51.42h-367.68c-28.4,0-51.42,23.02-51.42,51.42v111.62c0,28.4,23.02,51.42,51.42,51.42h438.21c28.4,0,51.42,23.02,51.42,51.42v-.02Z"/>
        <path class="cls-2" d="M7702.11,1966.29h0c-49.34,0-89.34,40-89.34,89.34v43.65c0,168.63-136.7,305.33-305.33,305.33h0c-49.34,0-89.34-40-89.34-89.34v-1253.88c0-49.34,40-89.34,89.34-89.34h531.57c308.84,0,532.71,207.51,532.71,506.99,0,149.47-62.08,276-167.66,362.62-33.14,27.19-42.16,74.14-21.62,111.76l174.19,319.06c32.5,59.54-10.59,132.16-78.41,132.16h0c-178.39,0-342.18-98.54-425.75-256.15l-71.42-134.7c-15.5-29.22-45.86-47.49-78.93-47.49h0ZM7612.76,1544.49c0,49.34,40,89.34,89.34,89.34h90.93c110.33,0,173.83-66.43,173.83-155.98s-63.5-155.09-173.83-155.09h-90.93c-49.34,0-89.34,40-89.34,89.34v132.39h0Z"/>
        <path class="cls-2" d="M9346.12,1327.41h-33.79c-19.9,0-36.03,16.13-36.03,36.03v1005.13c0,19.9-16.13,36.03-36.03,36.03h-324.32c-19.9,0-36.03-16.13-36.03-36.03v-1005.13c0-19.9-16.13-36.03-36.03-36.03h-317.1c-19.9,0-36.03-16.13-36.03-36.03h0c0-176.36,142.96-319.33,319.33-319.33h819.34c19.9,0,36.03,16.13,36.03,36.03h0c0,176.36-142.96,319.33-319.33,319.33h0Z"/>
        <path class="cls-2" d="M6046.07,1973.26c1.79,277.07-184.02,426.05-573.98,428.57l-428.82,2.77c-95.28.62-173.03-76.13-173.65-171.41l-7.05-1091.62c-.62-95.28,76.13-173.03,171.42-173.65l373.41-2.41c396.11-2.56,579.58,121.45,581.28,384.16.91,141.61-60.06,234.37-166.43,290.47l.06,8.21c139.96,60.67,222.73,164.81,223.77,324.9ZM5288.99,1382.93l.99,153.93,102.62-.67c108.78-.71,165.94-48.28,165.4-130.38-.56-86.2-66.49-126.82-167.06-126.17h0c-56.67.36-102.32,46.61-101.96,103.28h0ZM5616.88,1939.09c-.57-88.25-62.41-128.9-167.09-128.23h0c-87.28.56-157.57,71.77-157.01,159.06l.67,102.62,158.03-1.02c102.62-.67,165.95-46.23,165.4-132.43h0Z"/>
      </g>
      <g>
        <path class="cls-2" d="M2712.58,585.01l131.7,83.73c-48.24,65.95-128.64,108.18-225.12,108.18-160.8,0-275.66-115.6-275.66-268.98s114.86-268.23,275.66-268.23c96.48,0,176.89,41.49,225.12,108.18l-131.7,83.73c-19.91-26.68-52.07-43.72-93.42-43.72-73.51,0-117.15,52.61-117.15,120.04s43.64,120.04,117.15,120.04c41.35,0,73.51-16.3,93.42-42.98h0Z"/>
        <path class="cls-2" d="M3369.56,248.6v307.51c0,154.13-91.89,220.81-237.37,220.81s-238.14-66.69-238.14-220.81V248.6h158.5v294.17c0,58.54,30.63,85.21,79.64,85.21s78.87-26.68,78.87-85.21V248.6h158.51Z"/>
        <path class="cls-2" d="M3670.47,600.57h-58.19v166.72h-158.5V248.6h219.76c147.79,0,219.76,71.87,219.76,185.99,0,65.95-27.57,111.14-76.57,137.08l114.09,195.62h-173.05l-87.29-166.72h0ZM3612.28,480.53h61.26c35.99,0,59.73-11.85,59.73-45.94,0-31.12-18.38-46.68-59.73-46.68h-61.26v92.62Z"/>
        <path class="cls-2" d="M4382.59,608.72c0,90.4-79.63,168.2-210.57,168.2-97.24,0-203.68-35.56-225.88-139.31l135.53-40.75c3.06,26.68,33.69,51.87,83.46,51.87,41.35,0,59.73-17.78,59.73-37.79,0-31.12-40.58-34.09-94.18-46.68-103.37-23.71-163.09-65.21-163.09-159.31,0-99.29,85.76-165.24,203.68-165.24,94.19,0,176.88,46.68,196.79,136.34l-134.77,31.86c-6.13-20.75-24.5-40.02-60.49-40.02-30.63,0-53.6,12.6-53.6,36.31,0,29.64,46.7,34.09,88.05,45.2,130.93,34.83,175.35,77.06,175.35,159.31h0Z"/>
        <path class="cls-2" d="M4968.37,507.94c0,153.38-114.86,268.98-275.66,268.98s-275.66-115.6-275.66-268.98,114.86-268.23,275.66-268.23,275.66,115.6,275.66,268.23ZM4809.86,507.94c0-67.43-43.64-120.04-117.15-120.04s-117.15,52.61-117.15,120.04,43.64,120.04,117.15,120.04,117.15-51.87,117.15-120.04Z"/>
      </g>
    </g>
    <g>
      <path class="cls-3" d="M1963.86,1794.14c19.25,75.38-6.98,118.35-28.15,139.38-11.15,11.1-14.14,27.93-6.94,41.94,44.13,85.54-7.97,125.51-38.94,140.73-12,5.91-19.78,17.95-19.78,31.33v59.26c0,3.04-.36,6.13-1.16,9.09-61.1,233.78-251.06,211.76-490.48,138.62-110.42-33.75-171.3-25.65-204.78-7.03-24.35,13.52-53.8-6.36-51.83-34.15,2.55-35.58,13.7-76.27,43.95-112.44,74.39-88.94,252.27-11.32,297.56,3.22,40.55,13.03,130.43,14.41,148.74,14.55,2.19,0,4.39-.18,6.53-.58,133.92-25.29,103.48-127.16,103.48-127.16-.81-18.62,29.94-39.25,49.55-55.23,19.47-15.85,17.19-46.15-4.66-58.55-.45-.22-.85-.49-1.3-.72-22.78-12.85-24.44-45.21-2.82-59.93,21.89-14.91,46.37-27.26,64.59-35.58,15.67-7.16,23.81-24.53,19.43-41.18l-7.25-27.62c-.72-2.82-1.88-5.46-3.27-8.06-13.43-25.33-11.46-49.91-3.54-70.94,13.29-35.18,43.91-60.78,80.12-71.03,112.12-31.73,80.79-72.51,80.79-72.51,0,0-218.34-286.24-121.3-441.51,33.97-54.34,44.13-123.54,43.06-190.54-2.42-146.41-60.16-286.37-157.82-395.45-125.28-139.87-352.84-314.48-697.85-341.52-299.67-23.45-565.27,157.78-688.72,341.25-139.52,207.42-217.53,471.68-130.79,706.09,163.78,442.45,537.84,455.57,618.13,447.55,16.16-1.61,312.33-118.84,328,27.12,3.49,32.45-10.38,64.1-34.96,85.63-310.99,272.05-773.14-31.33-761.23-34.06C-51.14,1430.11-49.71,958.61,64.2,667.4c90.55-231.45,270.71-416,492.94-527.36,471.68-236.33,712.44-131.1,1014.48,5.86,377.77,171.3,601.62,670.55,509.41,932.57-92.16,261.98-40.42,202.14,59.84,465.77,100.26,263.59-181.95,249.85-181.95,249.85"/>
      <path class="cls-2" d="M1541.59,687.41c-33.26-69.2-121.48-104.51-248.33-99.41-19.6.81-39.84,2.55-60.6,5.19-6.62-19.83-13.79-38.85-21.57-56.85-50.35-116.55-120.36-180.79-197.17-180.79s-146.81,64.19-197.17,180.79c-7.79,17.99-14.95,37.02-21.57,56.85-20.72-2.64-41-4.39-60.6-5.19-126.89-5.1-215.07,30.21-248.33,99.41-32.99,68.62-6.13,158.58,75.47,253.52-81.6,94.98-108.41,184.9-75.47,253.52,31.15,64.81,110.47,99.9,224.61,99.9s15.67-.18,23.72-.49c19.6-.81,39.84-2.55,60.6-5.19,6.62,19.83,13.79,38.85,21.57,56.85,50.35,116.55,120.36,180.79,197.17,180.79s146.81-64.19,197.17-180.79c7.79-17.99,14.95-37.02,21.57-56.85,20.72,2.64,41,4.39,60.6,5.19,8.06.31,15.98.49,23.72.49,114.14,0,193.45-35.09,224.61-99.9,32.99-68.62,6.18-158.58-75.47-253.52,81.6-94.98,108.41-184.9,75.47-253.52h0ZM1295.68,647.93c7.3-.31,14.37-.45,21.35-.45,88.58,0,150.17,23.59,170.49,65.89,21.22,44.18-1.61,110.78-62.71,183.61-42.7-41.76-93.95-82.09-151.24-119.33-5.68-44.09-13.65-86.39-23.81-126.13,15.67-1.79,31.02-3,45.92-3.58h0ZM1104.87,1130.13c-30.3,14.55-60.69,27.71-90.91,39.39-30.21-11.68-60.6-24.84-90.91-39.39-39.39-18.93-77.08-39.48-112.48-61.28-4.3-41.36-6.53-84.19-6.53-127.92s2.24-86.57,6.53-127.92c35.41-21.8,73.09-42.34,112.48-61.28,30.3-14.55,60.69-27.71,90.91-39.39,30.21,11.68,60.6,24.84,90.91,39.39,39.39,18.93,77.08,39.48,112.48,61.28,4.3,41.36,6.53,84.19,6.53,127.92s-2.24,86.57-6.53,127.92c-35.41,21.75-73.09,42.34-112.48,61.28h0ZM1206.88,1144.58c-4.65,26.5-10.21,52.1-16.65,76.58-29.5-5.68-59.89-13.2-90.82-22.42,10.47-4.7,20.99-9.58,31.42-14.59,26.05-12.53,51.47-25.78,76-39.57h.04ZM928.52,1198.79c-30.93,9.22-61.32,16.7-90.82,22.42-6.45-24.48-12-50.09-16.65-76.58,24.57,13.83,49.95,27.08,76,39.57,10.47,5.01,20.95,9.89,31.42,14.59h.04ZM746.88,1026.6c-38.31-27.44-72.96-56.22-102.9-85.67,29.94-29.45,64.59-58.23,102.9-85.67-1.84,28.11-2.78,56.71-2.78,85.67s.94,57.52,2.78,85.67ZM821.09,737.31c4.65-26.5,10.21-52.1,16.65-76.58,29.5,5.68,59.89,13.2,90.82,22.42-10.47,4.7-20.99,9.58-31.42,14.59-26.05,12.53-51.47,25.78-76,39.57h-.04ZM1099.41,683.11c30.93-9.22,61.28-16.7,90.82-22.42,6.45,24.48,12,50.09,16.65,76.58-24.57-13.83-49.95-27.08-76-39.57-10.47-5.01-20.95-9.89-31.42-14.59h-.04ZM1281.09,855.3c38.31,27.44,72.96,56.22,102.9,85.67-29.94,29.45-64.59,58.23-102.9,85.67,1.84-28.11,2.78-56.76,2.78-85.67s-.94-57.52-2.78-85.67ZM871.9,560.11c39.7-91.89,91.49-144.57,142.07-144.57s102.41,52.68,142.07,144.57c5.91,13.7,11.46,28.06,16.65,42.97-51.25,10.29-104.69,25.51-158.76,45.25-54.07-19.74-107.51-34.96-158.76-45.25,5.19-14.91,10.74-29.23,16.65-42.97h.09ZM540.4,713.37c20.32-42.3,81.91-65.89,170.49-65.89s14.05.13,21.35.45c14.9.58,30.26,1.84,45.92,3.58-10.16,39.75-18.13,82.09-23.81,126.13-57.29,37.24-108.5,77.57-151.24,119.33-61.1-72.82-83.97-139.43-62.71-183.61h0ZM732.24,1233.97c-99.99,4.03-169.91-19.83-191.84-65.44-21.22-44.18,1.61-110.78,62.71-183.61,42.7,41.76,93.91,82.09,151.24,119.33,5.68,44.09,13.65,86.39,23.81,126.13-15.67,1.79-31.02,3-45.92,3.58h0ZM1156.08,1321.79c-39.7,91.89-91.49,144.57-142.07,144.57s-102.41-52.68-142.07-144.57c-5.91-13.7-11.46-28.06-16.65-42.97,51.25-10.29,104.69-25.51,158.76-45.25,54.07,19.74,107.51,34.96,158.76,45.25-5.19,14.91-10.74,29.23-16.65,42.97h-.09ZM1487.52,1168.49c-21.93,45.61-91.85,69.47-191.84,65.44-14.9-.58-30.26-1.84-45.92-3.58,10.16-39.75,18.13-82.09,23.81-126.13,57.29-37.24,108.5-77.57,151.24-119.33,61.1,72.82,83.97,139.43,62.71,183.61h0Z"/>
      <path class="cls-1" d="M1103.35,964.69c-2.42,10.61-6.53,20.54-12.13,29.5l18.62,18.53-30.3,30.44-18.53-18.49c-9.13,5.82-19.34,10.12-30.26,12.53v26.05h-42.97v-26.18c-10.61-2.46-20.54-6.67-29.45-12.31l-18.49,18.44-30.35-30.44,18.53-18.49c-5.64-9-9.8-18.93-12.17-29.59h-26.63v-42.92h26.72c2.42-10.56,6.62-20.5,12.26-29.41l-18.71-18.62,30.35-30.44,18.75,18.71c8.86-5.55,18.71-9.71,29.18-12.17v-26.63h42.97v26.45c10.79,2.42,20.9,6.67,29.99,12.4l18.8-18.75,30.3,30.44-18.8,18.71c5.59,8.91,9.76,18.8,12.17,29.32h26.05v42.92h-25.92Z"/>
    </g>
  </g>
</svg>