<?xml version="1.0" encoding="UTF-8"?>
<svg id="Camada_1" data-name="Camada 1" xmlns="http://www.w3.org/2000/svg" viewBox="0 0 573.37 637.58">
  <defs>
    <style>
      .cls-1 {
        fill: #000;
      }

      .cls-1, .cls-2 {
        stroke-width: 0px;
      }

      .cls-2 {
        fill: #004aac;
      }
    </style>
  </defs>
  <path class="cls-2" d="M520.72,475.72c5.1,19.99-1.85,31.38-7.47,36.96-2.96,2.94-3.75,7.41-1.84,11.12,11.7,22.68-2.11,33.28-10.33,37.31-3.18,1.57-5.25,4.76-5.25,8.31v15.71c0,.81-.09,1.63-.31,2.41-16.2,61.99-66.57,56.15-130.05,36.76-29.28-8.95-45.42-6.8-54.3-1.86-6.46,3.58-14.27-1.69-13.74-9.06.68-9.44,3.63-20.22,11.65-29.81,19.72-23.58,66.89-3,78.9.85,10.75,3.45,34.58,3.82,39.44,3.86.58,0,1.16-.05,1.73-.15,35.51-6.71,27.44-33.72,27.44-33.72-.21-4.94,7.94-10.41,13.14-14.65,5.16-4.2,4.56-12.24-1.23-15.52-.12-.06-.23-.13-.34-.19-6.04-3.41-6.48-11.99-.75-15.89,5.8-3.95,12.3-7.23,17.13-9.44,4.15-1.9,6.31-6.5,5.15-10.92l-1.92-7.32c-.19-.75-.5-1.45-.87-2.14-3.56-6.72-3.04-13.23-.94-18.81,3.52-9.33,11.64-16.12,21.24-18.83,29.73-8.41,21.42-19.23,21.42-19.23,0,0-57.89-75.9-32.16-117.07,9.01-14.41,11.7-32.76,11.42-50.52-.64-38.82-15.95-75.93-41.85-104.85-33.22-37.09-93.56-83.38-185.03-90.55-79.46-6.22-149.88,41.83-182.61,90.48-36.99,55-57.68,125.07-34.68,187.22,43.43,117.32,142.61,120.79,163.9,118.67,4.28-.43,82.82-31.51,86.97,7.19.93,8.6-2.75,17-9.27,22.7-82.46,72.13-205-8.31-201.84-9.03C-13.56,379.19-13.18,254.17,17.02,176.96c24.01-61.37,71.78-110.3,130.7-139.83,125.07-62.66,188.9-34.76,268.99,1.55,100.17,45.42,159.52,177.8,135.07,247.27-24.44,69.46-10.72,53.6,15.87,123.5,26.58,69.89-48.24,66.25-48.24,66.25"/>
  <path class="cls-1" d="M408.75,182.27c-8.82-18.35-32.21-27.71-65.84-26.36-5.2.21-10.56.68-16.07,1.38-1.76-5.26-3.66-10.3-5.72-15.07-13.35-30.9-31.91-47.94-52.28-47.94s-38.93,17.02-52.28,47.94c-2.07,4.77-3.96,9.81-5.72,15.07-5.49-.7-10.87-1.16-16.07-1.38-33.65-1.35-57.03,8.01-65.84,26.36-8.75,18.19-1.63,42.05,20.01,67.22-21.64,25.18-28.74,49.03-20.01,67.22,8.26,17.18,29.29,26.49,59.55,26.49s4.15-.05,6.29-.13c5.2-.21,10.56-.68,16.07-1.38,1.76,5.26,3.66,10.3,5.72,15.07,13.35,30.9,31.91,47.94,52.28,47.94s38.93-17.02,52.28-47.94c2.07-4.77,3.96-9.81,5.72-15.07,5.49.7,10.87,1.16,16.07,1.38,2.14.08,4.24.13,6.29.13,30.26,0,51.29-9.3,59.55-26.49,8.75-18.19,1.64-42.05-20.01-67.22,21.64-25.18,28.74-49.03,20.01-67.22h0ZM343.55,171.8c1.93-.08,3.81-.12,5.66-.12,23.49,0,39.82,6.25,45.21,17.47,5.63,11.71-.43,29.37-16.63,48.68-11.32-11.07-24.91-21.77-40.1-31.64-1.51-11.69-3.62-22.91-6.31-33.44,4.15-.47,8.22-.8,12.18-.95h0ZM292.96,299.65c-8.03,3.86-16.09,7.35-24.1,10.44-8.01-3.1-16.07-6.59-24.1-10.44-10.44-5.02-20.44-10.47-29.82-16.25-1.14-10.97-1.73-22.32-1.73-33.92s.59-22.95,1.73-33.92c9.39-5.78,19.38-11.23,29.82-16.25,8.03-3.86,16.09-7.35,24.1-10.44,8.01,3.1,16.07,6.59,24.1,10.44,10.44,5.02,20.44,10.47,29.82,16.25,1.14,10.97,1.73,22.32,1.73,33.92s-.59,22.95-1.73,33.92c-9.39,5.77-19.38,11.23-29.82,16.25h0ZM320,303.49c-1.23,7.03-2.71,13.81-4.41,20.31-7.82-1.51-15.88-3.5-24.08-5.95,2.78-1.25,5.57-2.54,8.33-3.87,6.91-3.32,13.65-6.84,20.15-10.49h.01ZM246.2,317.86c-8.2,2.44-16.26,4.43-24.08,5.95-1.71-6.49-3.18-13.28-4.41-20.31,6.52,3.67,13.24,7.18,20.15,10.49,2.78,1.33,5.55,2.62,8.33,3.87h.01ZM198.03,272.2c-10.16-7.28-19.34-14.91-27.28-22.72,7.94-7.81,17.13-15.44,27.28-22.72-.49,7.45-.74,15.04-.74,22.72s.25,15.25.74,22.72ZM217.71,195.5c1.23-7.03,2.71-13.81,4.41-20.31,7.82,1.51,15.88,3.5,24.08,5.95-2.78,1.25-5.57,2.54-8.33,3.87-6.91,3.32-13.65,6.84-20.15,10.49h-.01ZM291.51,181.13c8.2-2.44,16.25-4.43,24.08-5.95,1.71,6.49,3.18,13.28,4.41,20.31-6.52-3.67-13.24-7.18-20.15-10.49-2.78-1.33-5.55-2.62-8.33-3.87h-.01ZM339.68,226.78c10.16,7.28,19.34,14.91,27.28,22.72-7.94,7.81-17.13,15.44-27.28,22.72.49-7.45.74-15.05.74-22.72s-.25-15.25-.74-22.72ZM231.18,148.51c10.53-24.37,24.26-38.33,37.67-38.33s27.15,13.97,37.67,38.33c1.57,3.63,3.04,7.44,4.41,11.39-13.59,2.73-27.76,6.76-42.1,12-14.34-5.23-28.51-9.27-42.1-12,1.38-3.95,2.85-7.75,4.41-11.39h.02ZM143.29,189.15c5.39-11.22,21.72-17.47,45.21-17.47s3.73.04,5.66.12c3.95.15,8.02.49,12.18.95-2.69,10.54-4.81,21.77-6.31,33.44-15.19,9.87-28.77,20.57-40.1,31.64-16.2-19.31-22.26-36.97-16.63-48.68h0ZM194.15,327.19c-26.51,1.07-45.05-5.26-50.87-17.35-5.63-11.71.43-29.37,16.63-48.68,11.32,11.07,24.9,21.77,40.1,31.64,1.51,11.69,3.62,22.91,6.31,33.44-4.15.47-8.22.8-12.18.95h0ZM306.53,350.47c-10.53,24.37-24.26,38.33-37.67,38.33s-27.15-13.97-37.67-38.33c-1.57-3.63-3.04-7.44-4.41-11.39,13.59-2.73,27.76-6.76,42.1-12,14.34,5.23,28.51,9.27,42.1,12-1.38,3.95-2.85,7.75-4.41,11.39h-.02ZM394.42,309.82c-5.82,12.09-24.35,18.42-50.87,17.35-3.95-.15-8.02-.49-12.18-.95,2.69-10.54,4.81-21.77,6.31-33.44,15.19-9.87,28.77-20.57,40.1-31.64,16.2,19.31,22.26,36.97,16.63,48.68h0Z"/>
  <path class="cls-2" d="M292.55,255.79c-.64,2.81-1.73,5.45-3.22,7.82l4.94,4.91-8.03,8.07-4.91-4.9c-2.42,1.54-5.13,2.68-8.02,3.32v6.91h-11.39v-6.94c-2.81-.65-5.45-1.77-7.81-3.26l-4.9,4.89-8.05-8.07,4.91-4.9c-1.5-2.39-2.6-5.02-3.23-7.84h-7.06v-11.38h7.09c.64-2.8,1.76-5.44,3.25-7.8l-4.96-4.94,8.05-8.07,4.97,4.96c2.35-1.47,4.96-2.58,7.74-3.23v-7.06h11.39v7.01c2.86.64,5.54,1.77,7.95,3.29l4.98-4.97,8.03,8.07-4.98,4.96c1.48,2.36,2.59,4.98,3.23,7.77h6.91v11.38h-6.87Z"/>
</svg>